<?xml version="1.0" standalone="no"?><!DOCTYPE svg PUBLIC "-//W3C//DTD SVG 1.1//EN" "http://www.w3.org/Graphics/SVG/1.1/DTD/svg11.dtd"><svg t="1675929129814" class="icon" viewBox="0 0 1024 1024" version="1.1" xmlns="http://www.w3.org/2000/svg" p-id="13655" xmlns:xlink="http://www.w3.org/1999/xlink" width="81" height="81"><path d="M922.9 567.4c0 1 4.9 1.9 4.9 2.9s8.3 2.1 8.3 3c0 1-9.1 1.7-9.2 2.7 0 1-4.6 1.7-4.6 2.7 0 1-2.1 1.8-2.1 2.7 0 1 9.2 2.4 9.1 3.3-0.1 1-1 1.9-1 2.8-0.1 1 1.1 2 1 3-0.1 1-7.2 1.4-7.3 2.3-0.1 1 1.5 2 1.4 3-0.1 1 10.1 2.9 10.1 3.9-0.1 1-5.1 1.4-5.2 2.4-0.1 1 2.2 2.2 2.1 3.2-0.1 1-1.6 1.8-1.7 2.7-0.1 1 3.2 2.4 3.1 3.4-0.1 1-8.3 0.8-8.4 1.7-0.1 1-1 1.8-1.2 2.7-0.1 0.9-4.9 1.1-5.1 2.1-0.2 0.9 5.8 2.9 5.6 3.8-0.2 0.9 0.5 2 0.3 3-0.2 0.9-1.6 1.7-1.8 2.6-0.2 0.9-5 0.9-5.2 1.9-0.2 0.9-1.2 1.6-1.4 2.6-0.2 0.9 10.4 4.2 10.2 5.2-0.2 0.9-12.4-0.8-12.6 0.1-0.2 0.9 3.1 2.6 2.8 3.6-0.2 0.9 1.2 2.3 1 3.2-0.2 0.9-0.1 1.9-0.3 2.9-0.2 0.9-3.6 1-3.8 1.9-0.3 0.9 6.1 3.6 5.8 4.6-0.3 0.9 4.7 3.4 4.5 4.3-0.3 0.9-11.2-1.3-11.5-0.4-0.3 0.9-3.2 1-3.5 1.9-0.3 0.9 12.8 6 12.5 7-0.3 0.9 0.4 2.2 0.1 3.1-0.3 0.9-6.7-0.2-7 0.8-0.3 0.9 3.6 3.3 3.3 4.2-0.3 0.9-2.2 1.3-2.6 2.2-0.3 0.9-2 1.4-2.3 2.3-0.3 0.9-8.2-1-8.5-0.1-0.3 0.9 1.3 2.5 0.9 3.4s-5.7-0.2-6 0.7 4.1 3.7 3.7 4.6-2.9 0.8-3.3 1.7c-0.4 0.9-0.2 2-0.5 2.9-0.4 0.9 9.4 6.2 9 7.1s-9.9-2.3-10.3-1.4c-0.4 0.9 6.5 5.1 6.1 5.9-0.4 0.9-3.4 0.6-3.8 1.4-0.4 0.9-7.7-1.6-8.2-0.7-0.4 0.9 2.5 3.3 2.1 4.2-0.4 0.9 8.3 6.3 7.9 7.2-0.4 0.9-2 1.2-2.5 2-0.4 0.9-8.6-2.3-9.1-1.5-0.4 0.9-3.3 0.4-3.7 1.3-0.5 0.8 3 3.8 2.5 4.6-0.5 0.8 6.1 5.6 5.7 6.5-0.5 0.8-9.5-3.1-10-2.3-0.5 0.8 5.8 5.6 5.3 6.4-0.5 0.8-2.8 0.7-3.2 1.5-0.5 0.8 2 3.5 1.5 4.3-0.5 0.8-7.9-2.5-8.4-1.7s4.3 5 3.8 5.8c-0.5 0.8-4.4-0.5-4.9 0.3s-6.9-2.2-7.4-1.4c-0.5 0.8 4 4.9 3.5 5.7-0.5 0.8-8.1-3.2-8.7-2.4-0.5 0.8 6.8 6.9 6.2 7.7-0.5 0.8-7.9-3.2-8.5-2.4-0.5 0.8 0.1 2.4-0.4 3.2-0.6 0.8 5.7 6.4 5.1 7.2-0.6 0.8 2.2 4 1.6 4.8-0.6 0.8-12.3-6.7-12.9-5.9-0.6 0.8-1.4 1.3-2 2-0.6 0.8 5.3 6.4 4.7 7.2-0.6 0.8-3.3-0.2-3.9 0.6-0.6 0.8-0.3 2.2-0.9 3-0.6 0.8-3.9-0.7-4.5 0-0.6 0.7 8.5 9.5 7.9 10.2-0.6 0.7-8.4-4.5-9-3.7-0.6 0.7-1.7 1.1-2.3 1.8-0.6 0.7 2.1 4.4 1.5 5.1-0.6 0.7-2.3 0.6-2.9 1.3-0.6 0.7-3.3-0.3-3.9 0.4-0.6 0.7-4.5-1.5-5.2-0.8-0.6 0.7 0.6 3.1 0 3.8-0.6 0.7-1.4 1.3-2 2-0.7 0.7-1 1.7-1.6 2.4-0.7 0.7-1.6 1.1-2.2 1.8-0.7 0.7-0.1 2.5-0.8 3.2-0.7 0.7 4.1 6.8 3.4 7.4-0.7 0.7-0.5 2.3-1.2 2.9-0.7 0.7-10.5-7.9-11.2-7.2-0.7 0.7-3-0.4-3.7 0.3-0.7 0.7-0.2 2.5-0.9 3.1-0.7 0.7 7 10.2 6.3 10.9-0.7 0.7-5.9-3.5-6.6-2.8-0.7 0.7-0.1 2.7-0.9 3.3-0.7 0.6-6.9-4.8-7.6-4.2-0.7 0.6 0 2.9-0.7 3.5-0.7 0.6-1.5 1.1-2.3 1.7-0.7 0.6 2.5 5.8 1.7 6.4-0.7 0.6 0.9 4 0.1 4.6-0.7 0.6-2.9-0.5-3.7 0.1-0.7 0.6 1 4.2 0.2 4.8-0.7 0.6-10.5-9.8-11.2-9.2-0.7 0.6 0.2 3.2-0.6 3.8-0.8 0.6-1.2 1.5-2 2.1-0.8 0.6 5 9.5 4.2 10.1-0.8 0.6-0.5 2.6-1.3 3.2-0.8 0.6-6.5-5.4-7.3-4.8-0.8 0.6 1.8 5.6 1 6.2-0.8 0.6-7.8-7.4-8.6-6.8-0.8 0.6-0.1 3.1-0.8 3.7-0.8 0.6 5 10.3 4.2 10.9-0.8 0.6-1.9 0.7-2.7 1.3-0.8 0.5-4.2-2.6-5-2.1-0.8 0.5 0 3.4-0.8 3.9s-7.5-7.7-8.3-7.1c-0.8 0.5 0.6 4.4-0.2 4.9s0.4 4.1-0.4 4.7c-0.8 0.5-5-4.2-5.8-3.7-0.8 0.5 3 8.4 2.2 8.9-0.8 0.5-4.3-3.3-5.1-2.8-0.8 0.5-0.2 3.4-1 3.9s-6.4-6.9-7.2-6.4c-0.8 0.5-0.3 3.2-1.1 3.7s-2.6-0.7-3.4-0.2c-0.8 0.5-2.9-1.2-3.7-0.7-0.8 0.5 2.7 8.6 1.9 9.1-0.8 0.5-3.4-2.2-4.3-1.8-0.8 0.5 0.1 4.2-0.7 4.7-0.8 0.5-1.3 1.6-2.2 2-0.8 0.5 0.7 5.5-0.1 6-0.8 0.4-6-7.2-6.8-6.7-0.9 0.4 0.9 5.9 0 6.3-0.9 0.4-3.7-3-4.6-2.6-0.9 0.4-3.9-3.5-4.7-3.1-0.9 0.4-0.3 3.7-1.2 4.1-0.9 0.4-0.3 3.7-1.2 4.1-0.9 0.4-1.6 1.1-2.5 1.5-0.9 0.4-3.1-2-3.9-1.6-0.9 0.4-3.4-2.8-4.2-2.4-0.9 0.4 1.6 8.1 0.7 8.5-0.9 0.4-2.4-0.6-3.2-0.2-0.9 0.4-3.1-2.2-3.9-1.9-0.9 0.4 2.1 9.9 1.3 10.3-0.9 0.4-4.3-5.2-5.2-4.9-0.9 0.4-0.9 2.9-1.8 3.3-0.9 0.4 0.1 5.5-0.8 5.8-0.9 0.4-3.2-2.7-4.1-2.3-0.9 0.4-4.4-6.1-5.3-5.8-0.9 0.3 1.5 9.4 0.6 9.8-0.9 0.3-3.6-4-4.5-3.7-0.9 0.3-2 0.1-2.9 0.5-0.9 0.3-0.7 3.7-1.6 4.1-0.9 0.3-0.4 4.8-1.3 5.1-0.9 0.3-3.7-4.6-4.6-4.3-0.9 0.3-1.3 2.3-2.2 2.6-0.9 0.3-0.8 3.9-1.7 4.2-0.9 0.3-6.3-13-7.2-12.7-0.9 0.3 0.3 7.2-0.6 7.5-0.9 0.3-2.6-2-3.5-1.7-0.9 0.3-1.1 3.1-2 3.4-0.9 0.3-2.6-1.9-3.5-1.7-0.9 0.3-2.2-0.6-3.1-0.3-0.9 0.3 0.3 8.1-0.6 8.3-0.9 0.3-1.8 0.8-2.7 1-0.9 0.3-2 0-2.9 0.3-0.9 0.2-3.7-6.5-4.6-6.3-0.9 0.2-0.5 5.9-1.4 6.2-0.9 0.2-3.9-7.9-4.9-7.6-0.9 0.2-0.5 6.1-1.4 6.3-0.9 0.2 0 8.3-1 8.6-0.9 0.2-3.7-7.6-4.7-7.3-0.9 0.2-3.4-6.5-4.3-6.3-0.9 0.2-0.6 6.3-1.5 6.5-0.9 0.2-1.1 4.1-2.1 4.3-0.9 0.2-3.1-5.4-4-5.2-0.9 0.2-2.7-3.7-3.6-3.5-0.9 0.2-1.6 1.9-2.5 2-0.9 0.2 0.4 12.5-0.6 12.6-0.9 0.2-2.1-0.6-3-0.4-0.9 0.2-1.9 0.7-2.8 0.9-0.9 0.2-4-12.4-5-12.2-0.9 0.2-0.8 7-1.7 7.2-0.9 0.1-2-0.1-2.9 0-0.9 0.1-0.9 7.1-1.9 7.2-1 0.1-2.9-6.4-3.8-6.3-1 0.1-1.3 4.9-2.2 5-1 0.1-3.3-10.4-4.2-10.2-1 0.1-1.7 1.6-2.7 1.7-1 0.1-1.6 2.9-2.5 3-1 0.1-2-0.4-2.9-0.3-1 0.1-1.8 1.6-2.7 1.7-1 0.1-1 10.1-1.9 10.2-1 0.1-2.8-9-3.7-9-1 0.1-1.1 9.5-2.1 9.6-1 0.1-2.7-9.5-3.7-9.4-1 0.1-2.4-6.2-3.3-6.1-1 0.1-1.8 1.7-2.7 1.7-1 0.1-1.9 0-2.8 0.1-1 0.1-1.7 3.8-2.6 3.9-1 0.1-1.6 7.1-2.5 7.1-1 0-2.2-5.5-3.1-5.4-1 0-1.9 1.3-2.8 1.4-1 0-2.1-6.6-3.1-6.6s-1.6 11.3-2.6 11.3-2.1-10.7-3.1-10.7-1.7 13.1-2.7 13.1c-1 0-2-5.7-3-5.7s-1.9-4.1-2.9-4.1-2 9.5-2.9 9.5c-1 0-2 0.1-2.9 0.1-1 0-1.8-9.6-2.8-9.6-1 0-1.9 0.6-2.9 0.6s-2.1 5.2-3 5.2c-1 0-2.1 3.6-3 3.6-1 0-1.7-6.5-2.7-6.5-1 0-1.6-7.7-2.5-7.7-1 0-2 1.9-2.9 1.8-1-0.1-2.3 7-3.3 6.9-1-0.1-2.2 3.5-3.1 3.4-1-0.1-1.1-12.3-2-12.4-1-0.1-2.5 8.1-3.5 8-1-0.1-1.5-4.7-2.5-4.8-1-0.1-1.6-3.6-2.5-3.7-1-0.1-2.8 9.8-3.8 9.7-1-0.1-1.5-4-2.5-4.1-1-0.1-1.8-1.1-2.8-1.2-1-0.1-2.5 4.8-3.4 4.7-1-0.1-2.4 3.8-3.4 3.6-1-0.1-0.2-14.4-1.1-14.5-1-0.1-3.3 10.5-4.2 10.3-1-0.1-0.4-11-1.4-11.1-1-0.1-4 14.5-4.9 14.3-1-0.1-1.6-2.6-2.6-2.7-1-0.1-1.7-1.9-2.6-2-1-0.1-1.3-4.2-2.2-4.3-0.9-0.2-2.5 3.3-3.5 3.2-0.9-0.2-0.1-10.4-1.1-10.6-0.9-0.2-2.5 3.4-3.5 3.2-0.9-0.2-3 5.5-3.9 5.3-0.9-0.2 0.1-10.8-0.8-11-0.9-0.2-3.3 6.9-4.3 6.7-0.9-0.2-2 0.1-2.9-0.1-0.9-0.2-0.8-5.5-1.7-5.7-0.9-0.2-3.2 5.9-4.2 5.7-0.9-0.2-1.2-3.5-2.1-3.8-0.9-0.2-1.8-0.8-2.7-1.1-0.9-0.2-1.1-3.4-2.1-3.7-0.9-0.2-2.5 2.4-3.5 2.2-0.9-0.2-0.5-5.7-1.4-6-0.9-0.2-4.4 9.4-5.3 9.1-0.9-0.2-1.2-2.9-2.2-3.2-0.9-0.2-1.3-2.4-2.3-2.6-0.9-0.3-4.4 8.7-5.3 8.4-0.9-0.3-0.2-6.5-1.1-6.7-0.9-0.3-2.5 1.5-3.4 1.2-0.9-0.3 0.1-7.2-0.8-7.4-0.9-0.3-4.9 9.4-5.8 9.1-0.9-0.3 2.2-13.6 1.3-13.9-0.9-0.3-1.9-0.3-2.8-0.6-0.9-0.3-3.7 5.1-4.6 4.8-0.9-0.3-2 0-2.9-0.3-0.9-0.3 0.6-7.7-0.3-8-0.9-0.3-2.2 0.7-3.1 0.4-0.9-0.3-2.8 2.1-3.7 1.8-0.9-0.3-0.1-5.3-1-5.6-0.9-0.3-5.6 9.8-6.5 9.4-0.9-0.3 0.4-6.5-0.5-6.9-0.9-0.3-2-0.1-2.9-0.5-0.9-0.3-0.8-3.1-1.7-3.5-0.9-0.4-5.9 9.7-6.8 9.3-0.9-0.4 2.4-11 1.5-11.4-0.9-0.4-6.1 9.6-7 9.3-0.9-0.4 1.7-9.1 0.8-9.5-0.9-0.4-2.4 0.7-3.2 0.3-0.9-0.4-2-0.1-2.9-0.5-0.9-0.4-3.4 2.8-4.2 2.4-0.9-0.4 1.3-7.6 0.5-8-0.9-0.4-0.9-2.6-1.8-3-0.9-0.4-4.5 5.1-5.4 4.7-0.9-0.4-3.6 3.1-4.5 2.7-0.9-0.4-1.5-1.4-2.4-1.8-0.9-0.4 0.3-5-0.6-5.4-0.9-0.4-4 3.6-4.8 3.2-0.9-0.4 2.5-9.2 1.7-9.7-0.9-0.4-7.2 9.8-8.1 9.4-0.9-0.4-1.6-1.1-2.5-1.5-0.8-0.4 5.2-13.9 4.4-14.3-0.8-0.5-4.5 4.3-5.3 3.8-0.8-0.5 0.8-5.4 0-5.8-0.8-0.5-7.7 9.8-8.5 9.4-0.8-0.5 3.9-10.8 3.1-11.2-0.8-0.5-8.5 10.8-9.3 10.3-0.8-0.5 2-7.3 1.2-7.8s-2.6 0.6-3.4 0.1c-0.8-0.5 1.1-5.6 0.3-6.1s-0.8-2.4-1.6-2.9-0.2-3.2-1-3.7-5.5 5.2-6.3 4.7c-0.8-0.5 1.5-5.9 0.7-6.4s-4.3 3.1-5.1 2.6c-0.8-0.5-1.4-1.3-2.2-1.8-0.8-0.5 2-6.4 1.2-6.9s-2.1-0.3-2.9-0.8c-0.8-0.5-3.4 1.5-4.2 1-0.8-0.6-3.7 1.9-4.4 1.3-0.8-0.6-0.3-2.9-1.1-3.5-0.8-0.6 1.3-5 0.5-5.6-0.8-0.6-2.6 0.4-3.4-0.2-0.8-0.6-4.2 2.4-5 1.8-0.8-0.6 3.2-7.4 2.4-7.9-0.8-0.6-1.8-0.7-2.6-1.3-0.8-0.6-2.9 0.6-3.6 0-0.8-0.6-7.5 6.4-8.3 5.8-0.8-0.6-1.7-1-2.5-1.6-0.7-0.6 3.8-7.7 3-8.3-0.7-0.6 0.6-3.7-0.1-4.3-0.7-0.6-2.9 0.5-3.6-0.1-0.7-0.6-6.7 4.9-7.4 4.2-0.7-0.6 2.2-5.5 1.5-6.1-0.7-0.6-2.4-0.2-3.1-0.9-0.7-0.6-7.3 5.2-8 4.6-0.7-0.6 4.2-7.6 3.5-8.2-0.7-0.6 0.1-3-0.6-3.6-0.7-0.7 0.5-3.3-0.2-4-0.7-0.7-5.6 3.2-6.3 2.5-0.7-0.7-2.5-0.2-3.2-0.9-0.7-0.7-4.4 1.7-5.1 1-0.7-0.7-2.6-0.2-3.2-0.9-0.7-0.7 0.9-3.7 0.2-4.4-0.7-0.7 2.5-5.2 1.9-5.9-0.7-0.7-3.9 1.1-4.5 0.4-0.7-0.7 3.7-6.1 3-6.8-0.7-0.7-0.5-2.1-1.2-2.8-0.7-0.7-0.4-2.2-1-2.9-0.6-0.7-12 8.3-12.7 7.6-0.6-0.7 1.5-4 0.9-4.7-0.6-0.7-4.1 1-4.7 0.3-0.6-0.7 6.3-8 5.7-8.8-0.6-0.7 1.9-4.1 1.3-4.8-0.6-0.7-0.2-2.3-0.8-3-0.6-0.7-8.4 4.5-9 3.8-0.6-0.7 0.2-2.7-0.4-3.4-0.6-0.7-5.1 1.6-5.7 0.9-0.6-0.8 5.3-6.6 4.7-7.4-0.6-0.8-1-1.6-1.6-2.4-0.6-0.8-3-0.1-3.6-0.9-0.6-0.8-4.2 0.8-4.8 0-0.6-0.8-4.4 0.8-5 0-0.6-0.8 0.4-2.8-0.1-3.5-0.6-0.8-3.5 0.1-4-0.7-0.6-0.8 5-5.9 4.5-6.7-0.5-0.8-5.5 1.4-6 0.6-0.5-0.8 5.1-5.8 4.6-6.6-0.5-0.8 3.7-4.8 3.2-5.6-0.5-0.8-3.1-0.2-3.7-1-0.5-0.8-1.2-1.5-1.7-2.3-0.5-0.8-1.3-1.4-1.8-2.2-0.5-0.8-10.3 4.1-10.8 3.3-0.5-0.8 1.6-3.3 1.1-4.1-0.5-0.8-3.2-0.4-3.7-1.2-0.5-0.8-0.7-1.8-1.2-2.7-0.5-0.8 10.8-8.4 10.4-9.3-0.5-0.8-8.7 2.7-9.2 1.9-0.5-0.8 1.5-3 1.1-3.9-0.5-0.8 3.3-4 2.9-4.8-0.5-0.8-13.4 4.9-13.8 4.1L126 718c-0.4-0.9 4.4-4.4 3.9-5.3-0.4-0.9 1.5-2.9 1.1-3.8-0.4-0.9-2.3-1-2.7-1.9-0.4-0.9-2.8-0.8-3.2-1.7-0.4-0.9-0.2-2.1-0.6-2.9-0.4-0.9 0.5-2.4 0.1-3.2-0.4-0.9-5.2 0.2-5.6-0.7-0.4-0.9 4.9-4.2 4.5-5.1-0.4-0.9-7.5 1.1-7.9 0.2s6.8-4.9 6.5-5.8c-0.4-0.9-2.1-1.2-2.5-2.1-0.4-0.9-3.3-0.8-3.7-1.7-0.3-0.9 9-5.5 8.7-6.4-0.3-0.9-14.8 3.5-15.1 2.6-0.3-0.9 7.4-4.7 7-5.7-0.3-0.9-7.4 0.6-7.7-0.4-0.3-0.9-0.5-1.9-0.8-2.8-0.3-0.9-1.7-1.5-2-2.4-0.3-0.9 2-2.7 1.7-3.6-0.3-0.9 6.1-3.9 5.8-4.9-0.3-0.9-5.7-0.3-5.9-1.2-0.3-0.9 0.9-2.3 0.7-3.2-0.3-0.9-5.8-0.4-6-1.3-0.3-0.9 11.7-5.2 11.5-6.1-0.3-0.9-14 1.7-14.3 0.8-0.2-0.9 5.2-3.3 4.9-4.3-0.2-0.9-3.3-1.2-3.5-2.1-0.2-0.9 3.9-2.9 3.7-3.9-0.2-0.9-6.1-0.6-6.3-1.5-0.2-0.9 12.8-4.7 12.6-5.7-0.2-0.9-0.5-1.8-0.7-2.7-0.2-0.9-8.8-0.2-8.9-1.1-0.2-0.9-7.5-0.6-7.7-1.5-0.2-0.9 11-3.9 10.9-4.9-0.2-0.9 3.6-2.5 3.5-3.5-0.2-0.9-11.3-0.1-11.5-1.1-0.1-0.9 1.8-2.2 1.6-3.2-0.1-0.9 5.3-2.7 5.2-3.6-0.1-1-7.7-0.9-7.8-1.9-0.1-1 10.9-3.3 10.8-4.2-0.1-1-7-1.1-7.1-2-0.1-1-6.1-1.3-6.2-2.3-0.1-1 12-3.1 11.9-4-0.1-1-14.5-0.7-14.6-1.6-0.1-1 13-2.9 13-3.9-0.1-1-0.5-1.8-0.6-2.8-0.1-1-4-1.7-4.1-2.6-0.1-1 2.7-2 2.6-3 0-1-6.6-1.6-6.7-2.6 0-1-4.4-1.8-4.4-2.8 0-1-0.4-2-0.4-2.9 0-1 9.9-2.1 9.8-3 0-1-1.8-1.9-1.8-2.9s-5.5-2-5.4-2.9V562c0-1 12.3-1.6 12.3-2.6s-4.9-2-4.9-3 0.8-1.9 0.9-2.8c0-1-3.5-2.1-3.5-3 0.1-1 3.8-1.7 3.8-2.6 0.1-1 2.8-1.7 2.9-2.6 0.1-1-1.9-2-1.8-3 0.1-1-6.4-2.5-6.3-3.4 0.1-1 10.1-0.9 10.2-1.9 0.1-1-1.8-2.1-1.7-3 0.1-1-12-3.3-11.9-4.3 0.1-1 7.7-1 7.8-2 0.1-1-1-2.1-0.8-3 0.1-1 5.1-1.2 5.2-2.1 0.1-1-0.4-2-0.3-2.9 0.1-0.9-7.3-3.1-7.1-4.1 0.2-0.9 7.1-0.7 7.3-1.7 0.2-0.9-3.6-2.6-3.4-3.5 0.2-0.9 6.5-0.7 6.7-1.6 0.2-0.9-6.4-3.2-6.2-4.1 0.2-0.9 4.7-1 4.9-1.9 0.2-0.9-1.4-2.3-1.2-3.2 0.2-0.9 1.5-1.6 1.7-2.5 0.2-0.9-9.3-4.2-9.1-5.1 0.2-0.9 13.9 1.4 14.2 0.5 0.2-0.9-2.9-2.7-2.6-3.6 0.2-0.9-2.4-2.6-2.2-3.5 0.3-0.9 7.6 0.1 7.9-0.8 0.3-0.9-11.9-5.4-11.6-6.3 0.3-0.9-0.9-2.3-0.6-3.2 0.3-0.9 9.4 0.8 9.7-0.1 0.3-0.9 1.2-1.6 1.4-2.5 0.3-0.9-7.6-4.5-7.3-5.4 0.3-0.9-0.2-2.1 0.1-3.1 0.3-0.9 1.9-1.4 2.2-2.3 0.3-0.9 12.2 2.3 12.6 1.4 0.3-0.9-7.8-4.9-7.5-5.8 0.3-0.9-4.9-3.9-4.5-4.8 0.3-0.9 13.9 3.3 14.3 2.4 0.3-0.9-5.2-4.1-4.8-5 0.4-0.9 8.4 1.4 8.8 0.5 0.4-0.9-0.4-2.2 0-3.1 0.4-0.9-1.3-2.6-0.9-3.5 0.4-0.9 0.5-1.8 0.9-2.7 0.4-0.9 2-1.1 2.4-2 0.4-0.9 2.8-0.8 3.2-1.6 0.4-0.9-1.5-2.8-1.1-3.6 0.4-0.9-11-7.4-10.5-8.2 0.4-0.9 8.9 2.2 9.3 1.3 0.4-0.9-1.2-2.7-0.7-3.6 0.4-0.9-3-3.7-2.6-4.6 0.4-0.9 5.6 0.7 6.1-0.1 0.4-0.8-0.2-2.3 0.3-3.1 0.5-0.8 3.1-0.5 3.6-1.4 0.5-0.8-2-3.3-1.6-4.2 0.5-0.8-1.1-2.9-0.6-3.7 0.5-0.8 5.1 0.7 5.6-0.1 0.5-0.8-5.9-5.7-5.4-6.5 0.5-0.8 4.5 0.4 5-0.5 0.5-0.8-1.5-3.2-1-4 0.5-0.8 5.2 0.9 5.7 0.1s-4.1-4.9-3.6-5.7c0.5-0.8 10.9 4.7 11.5 3.9 0.5-0.8 3-0.3 3.5-1.1s-5.9-6.2-5.4-7c0.5-0.8 1.3-1.5 1.8-2.3 0.5-0.8 8.7 3.7 9.3 2.9 0.5-0.8-7.5-7.6-6.9-8.3 0.6-0.8 4.5 0.8 5 0.1 0.6-0.8-3.5-4.9-2.9-5.7 0.6-0.8 4.2 0.7 4.8-0.1 0.6-0.8 5 1.4 5.6 0.6 0.6-0.8-5.8-6.9-5.2-7.6 0.6-0.8 0.9-1.7 1.5-2.5s9.7 5.2 10.3 4.5c0.6-0.8 0.3-2.1 0.9-2.9 0.6-0.7-7.2-8.3-6.6-9.1 0.6-0.7-0.5-2.9 0.2-3.7 0.6-0.7 1.7-1.2 2.3-1.9 0.6-0.7 10.6 6.6 11.3 5.8 0.6-0.7 2.5-0.3 3.1-1 0.6-0.7-7.2-8.9-6.6-9.6 0.6-0.7 0-2.7 0.6-3.4 0.6-0.7 6.6 3.3 7.2 2.6 0.6-0.7 0.6-2 1.3-2.7 0.7-0.7 6.8 3.8 7.5 3.1 0.7-0.7-2.1-4.6-1.4-5.3 0.7-0.7 3.8 1.1 4.5 0.4 0.7-0.7-6-8.6-5.3-9.3 0.7-0.7 5.7 3 6.4 2.3 0.7-0.7 3.7 1.1 4.4 0.4 0.7-0.7 1.6-1.1 2.3-1.8 0.7-0.7 0.5-2.2 1.2-2.9 0.7-0.7-3.3-6.3-2.6-7 0.7-0.7 3.8 1.3 4.5 0.6 0.7-0.7 4.6 2.2 5.3 1.6 0.7-0.6-5.2-8.6-4.5-9.2 0.7-0.6 8.3 6.5 9 5.8 0.7-0.6-1.8-4.9-1-5.5 0.7-0.6 1.6-2.3 2.3-3-0.9-0.4-2.3-1.3-3.2-1.8-0.8-0.4 1.5-6.3 0.7-6.8s-4.8 4.5-5.6 4c-0.8-0.5-6.2 5.9-7 5.4-0.8-0.5 7.2-13.7 6.5-14.2-0.8-0.6-2.1 0-2.9-0.5-0.8-0.6-2.7 0.6-3.4 0-0.7-0.6-1.3-1.2-2-1.8-0.7-0.6-8.3 6.1-8.9 5.4-0.7-0.7 2.4-5.3 1.8-6-0.7-0.7-5.5 2.4-6.2 1.7-0.6-0.7-2.6-0.5-3.3-1.3-0.6-0.7 2.5-4.7 1.9-5.5-0.6-0.7 1.1-3.3 0.5-4-0.6-0.8 0.6-2.7 0.1-3.5-0.5-0.8-0.7-1.7-1.2-2.5s3-3.8 2.5-4.7c-0.5-0.8-11.1 4.1-11.6 3.3-0.5-0.8 6.8-5.7 6.4-6.5-0.4-0.9 1.5-2.6 1.1-3.5-0.4-0.9 0.5-2 0.1-2.9-0.4-0.9-7.9 1.2-8.2 0.3-0.3-0.9-0.3-1.9-0.6-2.8-0.3-0.9-7.8 0.4-8.1-0.6-0.3-0.9 4.9-3.5 4.6-4.4-0.2-0.9-1.6-1.6-1.9-2.6-0.2-0.9 4.2-2.8 4-3.8-0.2-1 0.8-2 0.6-2.9-0.1-1-0.8-1.7-0.9-2.7-0.1-1 2-2 2-3-0.1-1-2.1-1.7-2.1-2.6 0-1-8.4-1.7-8.4-2.7 0-1 3-2 3-3s10.4-1.4 10.5-2.4c0.1-1-3.5-2-3.4-2.9 0.1-1-4-2.3-3.9-3.3 0.1-1 6.6-0.9 6.7-1.8 0.2-1-11.7-4.1-11.5-5 0.2-0.9-1-2.4-0.8-3.4 0.2-0.9 9 0.2 9.2-0.7 0.3-0.9 0.9-1.7 1.1-2.6 0.3-0.9 0.5-1.8 0.8-2.7 0.3-0.9 0.7-1.7 1.1-2.6 0.4-0.9 2.4-1 2.8-1.9 0.4-0.9-7.7-5.7-7.3-6.5 0.4-0.9 2.3-1.2 2.7-2.1 0.4-0.9-1.1-3-0.7-3.9 0.5-0.8 13.1 5.5 13.6 4.6 0.5-0.8 0.8-1.4 1.4-2.2 0.5-0.8-1.7-3.3-1.2-4.1 0.6-0.8 1.1-1.4 1.7-2.2 0.6-0.8 1-1.5 1.6-2.3 0.6-0.7-5.5-7.2-4.8-7.9 0.6-0.7-0.5-3.4 0.1-4.1 0.7-0.7 3.3 0.2 4-0.4 0.7-0.7 7.7 5.3 8.4 4.7 0.7-0.7 0.3-2.4 1-3 0.7-0.6-4.5-8.5-3.7-9.2 0.8-0.6 4.2 2.1 5 1.5 0.8-0.6-1.1-5.1-0.3-5.7 0.8-0.5 2.3-0.5 3.1-1 0.8-0.5 6.3 6.5 7.2 6 0.8-0.5-2-7.4-1.1-7.9 0.8-0.5 5.3 6 6.2 5.6 0.9-0.4-2-8.7-1.1-9.1 0.9-0.4 7.2 11.8 8.1 11.5 0.9-0.4-1-7.3-0.1-7.7 0.9-0.3 2.7 2 3.6 1.7 0.9-0.3-0.6-8.3 0.3-8.6 0.9-0.3 2.6 1.8 3.6 1.6 0.9-0.2 2.9 3.9 3.9 3.7 0.9-0.2 0.1-9.2 1.1-9.4 1-0.2 2.5 2.1 3.4 1.9 1-0.1 1.9-1.2 2.9-1.3 1-0.1 2.7 7.6 3.7 7.5 1-0.1 1.4-10.1 2.3-10.2 1 0 2.2-0.7 3.1-0.7 1 0 2 6.1 3 6.1s2.4-6.2 3.3-6.2c1 0.1 1.8 4.4 2.8 4.5 1 0.1 1.4 5.4 2.3 5.5 1 0.1 2.6-4.4 3.6-4.2 1 0.2 1.7 2 2.6 2.2 0.9 0.2 3.2-4.8 4.1-4.6 0.9 0.2-1.4 13.1-0.4 13.3 0.9 0.3 2.9-3.6 3.9-3.3 0.9 0.3 0.9 3.1 1.8 3.4 0.9 0.3 2.8-2.4 3.7-2 0.9 0.4 1 2.3 1.9 2.7 0.9 0.4 5.2-6.7 6.1-6.3 0.9 0.4-2.7 9.7-1.8 10.2 0.9 0.4 1 1.7 1.9 2.2 0.8 0.5 4.5-4 5.3-3.5 0.8 0.5-2.2 6.8-1.4 7.4 0.8 0.5 7.9-8.2 8.6-7.6 0.8 0.6 0.9 2.2 1.7 2.8 0.8 0.6-5.2 9.5-4.5 10.2 0.7 0.6 11.8-10.9 12.5-10.2 0.7 0.6 1.8 1.3 2.5 1.9 0.7 0.7-4.5 7.5-3.8 8.2 0.7 0.7 0.1 2.5 0.8 3.2 0.7 0.7-3 5-2.4 5.7 0.6 0.7 6.3-2.9 6.9-2.2 0.6 0.8-4 5.3-3.4 6.1 0.6 0.8 3.4-0.3 3.9 0.5s2.4 0.5 3 1.4c0.5 0.8 7-2 7.5-1.2s-5.3 5.2-4.8 6.1c0.5 0.8 9.3-2.6 9.7-1.7 0.4 0.9 2.1 1.4 2.5 2.3 0.4 0.9-0.5 2.6-0.1 3.5 0.4 0.9-3.1 3.5-2.8 4.4 0.3 0.9-8.1 4.8-7.8 5.7 0.3 0.9 9.9-1.2 10.2-0.3 0.3 0.9 2.7 1.4 3 2.3 0.2 0.9-12.1 4.8-11.9 5.8 0.2 1 10.8-0.3 11 0.7 0.2 1-4.7 2.8-4.6 3.8 0.1 1 4.6 1.4 4.7 2.4 0.1 1 5.1 1.7 5.2 2.7 0.1 1-9 2.6-9 3.6s-2.9 1.9-2.9 2.9 3.3 4.7 3.2 5.7c0.9-0.4 2.7-6.5 3.6-6.8 0.9-0.3 1.3-2 2.2-2.3 0.9-0.3 2-0.3 2.9-0.6 0.9-0.3 1.4-1.7 2.3-2 0.9-0.3 2.5 1.1 3.4 0.8 0.9-0.3 5 8.4 5.9 8 0.9-0.3 1.6-1.2 2.5-1.5 0.9-0.3 2.5 1.6 3.4 1.3 0.9-0.3-2.6-13.8-1.7-14.1 0.9-0.3 2 0 2.9-0.3 0.9-0.3 2.9 2.7 3.8 2.5 0.9-0.3 0-6.3 0.9-6.6 0.9-0.3 4.4 7.6 5.3 7.3 0.9-0.3 2.9 3 3.8 2.7 0.9-0.3 2.7 2.6 3.6 2.3 0.9-0.3 1.7-0.8 2.6-1.1 0.9-0.3-0.5-8.6 0.5-8.8 0.9-0.3 4.2 8.2 5.1 8 0.9-0.2-1.2-11.8-0.3-12 0.9-0.2 2.1 0.2 3 0 0.9-0.2 3.7 6.7 4.6 6.5 0.9-0.2 2.5 2.4 3.4 2.2 0.9-0.2 1.4-2.3 2.3-2.5 0.9-0.2-0.1-8.9 0.8-9.1 0.9-0.2 3.6 7.3 4.6 7.1 0.9-0.2 0.7-5.8 1.6-6 0.9-0.2 2.7 3.6 3.7 3.4 0.9-0.2 0.9-5 1.8-5.2 0.9-0.2 2.8 4 3.7 3.9 0.9-0.2 1.8-0.8 2.7-0.9 0.9-0.2 2.1 1.2 3.1 1 0.9-0.2 1.4-3 2.3-3.2 0.9-0.2 0.2-9.9 1.1-10.1 0.9-0.2 2.1 0.9 3.1 0.8 0.9-0.2 2.5 3.2 3.4 3.1 0.9-0.2 2.5 3.4 3.4 3.2 0.9-0.1 1.9-0.1 2.9-0.2 0.9-0.1 2.5 4.4 3.5 4.2 0.9-0.1 1.6-2 2.6-2.1 0.9-0.1 0.3-12 1.3-12.2 0.9-0.1 2.2 1.8 3.1 1.7 0.9-0.1 2.6 5.8 3.6 5.7 0.9-0.1 1.5-3.7 2.4-3.8 0.9-0.1 2.4 4.5 3.4 4.4 0.9-0.1 1.3-5.6 2.3-5.7 0.9-0.1 2.9 10.4 3.9 10.3 0.9-0.1 1.6-3.4 2.5-3.5 0.9-0.1 1.1-9.4 2.1-9.4 0.9-0.1 2.6 8.1 3.5 8 0.9-0.1 2 1.5 3 1.4 0.9-0.1 1.5-5.6 2.5-5.7 1-0.1 2.3 6.7 3.3 6.6 1-0.1 1.9 1 2.9 1 1-0.1 1.7-4.2 2.6-4.2 1 0 1.7-4.1 2.7-4.2 1 0 2.1 4 3 3.9 1 0 1.7-6.7 2.7-6.7 1 0 2.1 5.1 3 5 1 0 1.9-2.1 2.8-2.1 1 0 1.9 0.6 2.9 0.6s1.9 2.4 2.9 2.4 1.9 4 2.9 4 1.9-7.6 2.9-7.6 1.9 4.9 2.8 4.9c1 0 1.8 4 2.8 4 1 0 2.1-8.1 3-8 1 0 1.7 7.7 2.6 7.8 1 0 2.4-13.7 3.3-13.6 1 0 1.4 13.8 2.3 13.9 1 0 1.9-1.5 2.9-1.4 1 0 2.1-3.7 3-3.7 1 0.1 2.1-3.5 3.1-3.5 1 0.1 1.9 0.5 2.8 0.6 1 0.1 1.6 4.2 2.6 4.2 1 0.1 2.3-4.7 3.2-4.6 1 0.1 1.2 9.2 2.1 9.3 1 0.1 2.8-10.9 3.8-10.9 1 0.1 1.1 8.5 2.1 8.6 0.9 0.1 3-11.1 4-11 0.9 0.1 0.4 14.7 1.3 14.8 0.9 0.1 1.9-0.1 2.8 0 0.9 0.1 1.8 0.9 2.7 1 0.9 0.1 2.2-2.7 3.2-2.6 0.9 0.1 1.4 3.9 2.3 4 0.9 0.1 1.9 0.1 2.8 0.2 0.9 0.1 1.9 0.2 2.8 0.3 0.9 0.1 3.6-11.6 4.6-11.5 0.9 0.1 0.4 10.1 1.3 10.2 0.9 0.1 2.9-6.4 3.9-6.2 0.9 0.2 1.9 0.2 2.8 0.4 0.9 0.2 1.5 2.8 2.4 2.9 0.9 0.2 2.6-3.5 3.5-3.3 0.9 0.2 0 10.2 1 10.4 0.9 0.2 3.9-10.5 4.9-10.3 0.9 0.2 0.5 7.3 1.5 7.4 0.9 0.2 1.2 3.8 2.1 3.9 0.9 0.2 3.8-9.1 4.8-8.9 0.9 0.2 2.8-4 3.8-3.8 0.9 0.2-1.3 14.6-0.4 14.9 0.9 0.2 2.2-1.4 3.2-1.2 0.9 0.2 4.8-12 5.7-11.8 0.9 0.2-1 12.1 0 12.3 0.9 0.2 1.2 2.9 2.1 3.1 0.9 0.2 5.4-13.6 6.4-13.4 0.9 0.2 1.4 2.4 2.3 2.7 0.9 0.2 2.1-0.3 3-0.1 0.9 0.2 0.9 4.2 1.8 4.4 0.9 0.3-0.7 9.3 0.3 9.6 0.9 0.3 3.8-6.5 4.7-6.2 0.9 0.3 0.1 6.2 1.1 6.5 0.9 0.3 2.1-0.3 3-0.1 0.9 0.3 5.3-10.6 6.2-10.3 0.9 0.3 1.4 2.1 2.3 2.4 0.9 0.3-0.4 7.5 0.5 7.8 0.9 0.3 0.9 3.4 1.8 3.7 0.9 0.3 3.7-5 4.6-4.7 0.9 0.3 3.4-4 4.3-3.7 0.9 0.3-2.2 12-1.3 12.4 0.9 0.3 5.6-10.1 6.5-9.8 0.9 0.3 1.3 2 2.2 2.4 0.9 0.3-1.2 8.7-0.3 9.1 0.9 0.3 4.3-6 5.2-5.6 0.9 0.3-2.1 10.6-1.2 11 0.9 0.3 0.7-12.3 1.6-11.9 0-1 6 3.6 6 2.7 0-1 6.1-1.6 6.1-2.6s-12.2-2.5-12.1-3.4c0.1-1 11.3-0.9 11.4-1.8 0.1-1-1.1-1.8-1-2.8 0.1-1-10.4-3.6-10.2-4.5 0.2-0.9 3.4-1.4 3.6-2.3 0.2-0.9 10 0.4 10.2-0.5 0.2-0.9-7.1-3.7-6.9-4.7 0.3-0.9 2.3-1.3 2.6-2.2 0.3-0.9 4.1-0.5 4.4-1.4 0.3-0.9-0.4-2 0-2.9 0.4-0.9-10.1-6.4-9.7-7.3 0.4-0.9 14.3 4.5 14.7 3.7 0.4-0.9-10.4-7.4-10-8.2 0.4-0.8 9.1 2.8 9.5 2 0.5-0.8 2-0.9 2.5-1.7 0.5-0.8-0.9-2.7-0.3-3.4 0.5-0.8-5.3-6-4.8-6.8 0.6-0.8-0.6-3.1 0-3.8 0.6-0.8 9.5 5.1 10.1 4.4 0.6-0.7-5.4-7.2-4.8-7.9 0.6-0.7 10.8 7.4 11.5 6.8 0.7-0.7 0.7-1.6 1.4-2.2 0.7-0.7-6.5-9.5-5.8-10.2 0.7-0.6 0.5-2.6 1.2-3.2 0.7-0.6 5.4 3.5 6.2 2.9 0.7-0.6 5.4 4.2 6.2 3.6 0.8-0.6-7.5-13.8-6.7-14.4 0.8-0.5 1.9-1 2.7-1.6 0.8-0.5 6.5 6.8 7.3 6.3 0.8-0.5 4.7 4.7 5.5 4.2 0.8-0.5-2.5-8.7-1.6-9.2 0.9-0.4 5.7 7.7 6.5 7.3 0.9-0.4-3.5-12.8-2.6-13.1 0.9-0.4 1.3-2.4 2.2-2.7 0.9-0.3 3.9 4.8 4.8 4.5 0.9-0.3 2.4 1.4 3.4 1.1 0.9-0.3 0.8-4.5 1.7-4.7 0.9-0.2 4.3 9.9 5.2 9.7 0.9-0.2 0.5-6.2 1.5-6.3 1-0.2 0.8-7 1.8-7.2 1-0.1 1.7-3.7 2.6-3.9 1-0.1 3.5 15.6 4.5 15.6 1-0.1 0.9-16 1.9-16 1 0 2.3 10 3.3 10s1.8 4.3 2.7 4.3c1 0 1.8-0.7 2.7-0.6 1 0.1 3-13 3.9-12.9 1 0.1 0.4 14.2 1.3 14.4 1 0.1 2.9-7.3 3.9-7.1 1 0.2 2.5-2.3 3.4-2.2 0.9 0.2 2 0.7 2.9 0.9 0.9 0.2 0 7.8 0.9 8.1 0.9 0.3 5.2-10.5 6.1-10.3 0.9 0.3-1.3 10.2-0.4 10.5 0.9 0.3 4.3-6 5.2-5.6 0.9 0.4-2.1 10-1.2 10.4 0.9 0.4 4.7-5.9 5.6-5.5 0.9 0.4-0.8 5.9 0 6.4 0.9 0.4 5.2-5.6 6.1-5.2 0.8 0.5-1.8 6.9-1 7.4s4.2-3.1 5-2.6c0.8 0.5 1.3 1.6 2.1 2.1 0.8 0.6-3.8 8.3-3.1 8.9 0.8 0.6 8.7-8 9.4-7.4 0.7 0.6 1 2 1.7 2.6 0.7 0.6-1 4.1-0.3 4.7 0.7 0.7 2.1 0.6 2.8 1.2 0.7 0.7 2.2 0.6 2.8 1.3 0.7 0.7-5.7 7.5-5 8.2 0.6 0.7 7.5-3.9 8.1-3.1 0.6 0.8-0.5 2.8 0 3.6 0.6 0.8 3.7-0.3 4.2 0.5s-3 4.3-2.5 5.1c0.5 0.8 0.2 2 0.7 2.8 0.5 0.8 8.1-2.4 8.6-1.5 0.5 0.8 4.8-0.1 5.2 0.8 0.4 0.9-5.3 4.8-4.9 5.7 0.4 0.9-3.1 3.4-2.7 4.3 0.4 0.9 2 1.2 2.3 2.1 0.3 0.9-2.7 2.9-2.4 3.8 0.3 0.9-0.5 2-0.3 2.9 0.3 0.9 6.5 0.1 6.8 1 0.2 0.9-3.8 2.8-3.6 3.8 0.2 1 3.1 1.2 3.2 2.2 0.2 1-0.3 1.9-0.1 2.9 0.1 1-1.4 2-1.3 3 0.1 1 3 1.6 3 2.5 0.1 1-0.4 1.9-0.4 2.9s6.1 1.8 6.1 2.8c0 1 2.6 2.2 2.6 3.1 0 1 1.1 2.3 1.1 3.2-0.1 1 0.1 2.2 0 3.2s-9.4 1-9.5 2c-0.1 1 5.8 2.9 5.6 3.9-0.2 1-8.9 0.3-9.1 1.3-0.2 1-1.2 1.6-1.5 2.5-0.2 0.9-3.5 0.9-3.8 1.8-0.3 0.9 13.7 6.1 13.4 7-0.3 0.9-8.8-0.8-9.1 0.1-0.3 0.9 2.9 3.2 2.5 4.1-0.4 0.9-3.8 0.6-4.2 1.4-0.4 0.9 2.3 3.2 1.8 4.1-0.4 0.9-3.3 0.6-3.8 1.4-0.5 0.9 5.8 5.6 5.3 6.4-0.5 0.8-12.3-5-12.8-4.2-0.5 0.8 9.9 8.7 9.4 9.5-0.5 0.8-7.1-2.4-7.7-1.6-0.6 0.8-2.3 0.7-2.9 1.4-0.6 0.8 5.5 7.1 4.9 7.8-0.6 0.7-2.4 0.8-3 1.5-0.6 0.7-10.8-7.4-11.5-6.7l-1.9 1.9c-0.7 0.7 0.7 3.3 0 4-0.7 0.7 1.3 4.4 0.6 5-0.7 0.6-2 0.6-2.7 1.2-0.8 0.6-3.2-1.1-4-0.5-0.8 0.6-0.5 2.5-1.3 3s-2.6-0.7-3.5-0.1c-0.8 0.5-2.3-0.3-3.1 0.2-0.8 0.5 2.2 7.9 1.4 8.4-0.9 0.5 0.2-1.1-0.7-0.7 0.7 0.6 0.9-2.2 1.6-1.6 0.7 0.6 4.2-1.8 4.9-1.2 0.7 0.6 0.6 2.3 1.3 3 0.7 0.6-0.5 3.5 0.2 4.1 0.7 0.6 2.8-0.2 3.5 0.4 0.7 0.7-7.9 11.3-7.2 11.9 0.7 0.7 7.9-5.6 8.6-4.9 0.7 0.7 5.4-2.8 6.1-2.2 0.7 0.7-0.2 3 0.5 3.7 0.7 0.7-5.3 8.1-4.6 8.8 0.7 0.7 4.1-1.4 4.7-0.7 0.7 0.7 2.4 0.4 3 1.1 0.7 0.7-1.5 4.1-0.9 4.8 0.7 0.7 6.8-3.8 7.5-3.1 0.7 0.7-6.6 8.8-5.9 9.5 0.7 0.7 1.7 1 2.4 1.7 0.6 0.7 6.6-3.4 7.2-2.7 0.6 0.7-1.3 3.7-0.6 4.4 0.6 0.7 6.9-3.5 7.5-2.8 0.6 0.7-9.1 10.5-8.5 11.2 0.6 0.7 11.4-7.3 12.1-6.5 0.6 0.7 1.1 1.6 1.8 2.3 0.6 0.7-3.9 5.8-3.3 6.5 0.6 0.7-0.8 3.1-0.2 3.8 0.6 0.7 3 0.1 3.6 0.8 0.6 0.8 5.8-2.1 6.4-1.4 0.6 0.8-0.7 3-0.1 3.8 0.6 0.8-4.6 5.9-4 6.7 0.6 0.8 8.5-4 9-3.2 0.6 0.8 1.8 1.1 2.4 1.9 0.6 0.8-5.8 6.6-5.3 7.4 0.6 0.8 7-2.7 7.6-1.9 0.6 0.8 3 0.2 3.6 1 0.5 0.8-1.9 3.7-1.4 4.5 0.5 0.8-1.2 3.2-0.7 4 0.5 0.8-2.6 4-2.1 4.8 0.5 0.8 6.8-2.2 7.3-1.4 0.5 0.8-5.2 5.6-4.7 6.4 0.5 0.8 12.6-5.7 13.1-4.9 0.5 0.8-0.2 2.5 0.3 3.3 0.5 0.8 0.6 1.9 1.1 2.7 0.5 0.8-1.7 3.3-1.2 4.1 0.5 0.8-1.6 3.2-1.1 4 0.5 0.8 7.3-2 7.8-1.1 0.5 0.8-9 7.3-8.5 8.1 0.5 0.8 5.2-0.7 5.7 0.1 0.5 0.8-1.6 3.1-1.2 3.9 0.5 0.8-0.9 2.6-0.5 3.5 0.4 0.9 10.4-3.2 10.8-2.4 0.4 0.9-11.4 7.9-10.9 8.8 0.4 0.9 13.3-4.5 13.7-3.6 0.4 0.9-6.4 5.3-6 6.1 0.4 0.9 8.6-1.9 9-1.1 0.4 0.9-5.8 4.9-5.4 5.7 0.4 0.9 5.3-0.3 5.7 0.6 0.4 0.9 0.5 1.9 0.9 2.8 0.4 0.9-10.5 6.6-10.1 7.5 0.4 0.9 1.1 1.5 1.5 2.4s7.2-1 7.6-0.1c0.4 0.9 3.6 0.6 4 1.5 0.4 0.9 0.6 1.8 1 2.7 0.3 0.9 5.9-0.2 6.2 0.7 0.3 0.9-8.8 5.4-8.5 6.3 0.3 0.9 0.2 1.9 0.5 2.8 0.3 0.9 2.8 1 3.1 2 0.3 0.9-1.8 2.6-1.4 3.5 0.3 0.9 3.1 1 3.4 1.9 0.3 0.9-1.8 2.6-1.5 3.5 0.3 0.9 5.2 0.4 5.5 1.3 0.3 0.9-0.1 2.1 0.2 3 0.3 0.9-1.7 2.5-1.5 3.4 0.3 0.9 4.1 0.9 4.3 1.8 0.3 0.9-9.3 4.5-9.1 5.5 0.3 0.9 14.8-1.9 15-1 0.2 0.9-5.5 3.4-5.2 4.3 0.2 0.9 6.6 0.4 6.8 1.3 0.2 0.9-1.3 2.4-1.1 3.3 0.2 0.9-10.8 4.4-10.5 5.3 0.2 0.9 12.6-0.8 12.8 0.2 0.2 0.9-2.9 2.6-2.8 3.6 0.2 0.9 1.3 1.7 1.5 2.7 0.2 0.9 1.6 1.7 1.7 2.6 0.2 0.9-0.9 2.2-0.8 3.1 0.2 0.9-1 2.2-0.9 3.1 0.2 0.9 1 1.8 1.2 2.8 0.1 0.9-8.3 3.2-8.2 4.1 0.1 0.9 11.3 0.3 11.4 1.3 0.1 1 0.1 2 0.2 2.9 0.1 1-4.3 2.5-4.2 3.4 0.1 1 7.3 1.1 7.4 2.1 0.1 1-6.5 2.7-6.4 3.6 0.1 1 3 1.7 3.1 2.6 0.1 1 3 1.7 3.1 2.7 0.1 1-1.4 2.1-1.3 3 0.1 1-8 2.5-8 3.4 0.1 1 6.5 1.5 6.5 2.5 0.1 1-6.6 2.3-6.5 3.2 0 1 0.3 1.9 0.4 2.8 0 1 3.1 1.8 3.1 2.8 0 1 3.8 1.9 3.8 2.8 0 1-5.2 2-5.2 3-0.1 0.9-4.2 1.8-4.2 2.8z" fill="#D7B68B" p-id="13656"></path><path d="M517.9 945c-1.8 0-3.3-0.4-4.6-1-1.2 0.5-2.5 0.8-4.2 0.8h-0.8c-0.6 0-1.3 0.1-2.2 0.1-1.1 0-3.5-0.2-5.8-1.9-1.6 1-3.6 1.8-6.1 1.7-3.8-0.1-6.3-2-7.9-4.2-1.7 1.3-4 2.2-6.9 2.1-1.9-0.1-5.6-0.9-8-4.9h-0.1c-2.7 1.8-5.5 1.8-6.6 1.7-1.1-0.1-2.1-0.4-3-0.7-1.9 2-4.9 4.2-9.3 3.7-1.5-0.2-3.6-0.7-5.3-2.2-2.4 1.5-4.9 1.5-6.6 1.3-4-0.6-6.3-3.1-7.6-4.8-0.4-0.3-0.8-0.7-1.2-1-0.8 0-1.6 0-2.4-0.1-0.9-0.2-2.8-0.6-4.7-2.1-1.2 0.2-2.5 0.3-4 0-1.2-0.2-4.3-1.1-6.5-4.2-0.5 0-1.1-0.1-1.7-0.2-0.3-0.1-0.6-0.1-0.8-0.2-1.5 0.5-3.2 0.6-5.2 0.1-3.9-0.9-6-3.4-7.2-5.6-0.2-0.1-0.4-0.2-0.5-0.3-3.9 3.8-8.3 3.1-9.8 2.7-4 3.8-8.4 3-9.9 2.6-2.6-0.7-4.4-2.2-5.5-3.8-2.6 0.8-4.8 0.3-5.8 0-2.7-0.8-6.8-3.2-7.2-9.7-0.6-0.1-1.3-0.3-2-0.5-2.4-0.8-4-2.1-5.1-3.7-4 3.2-8 2.3-9.9 1.6-1.5-0.5-2.6-1.3-3.5-2.1-3.6 2-7 1.2-8.6 0.5-0.6-0.3-1.5-0.7-2.4-1.4-1.3-0.1-2.4-0.5-3.2-0.8-1.3-0.5-4.5-2.3-5.8-6.4-1.2 0-2.6-0.3-4-0.9-1.8-0.8-3.1-1.9-4-3.1-2.1 0.6-4.6 0.7-7.4-0.6-1.6-0.8-2.7-1.7-3.4-2.3-0.4-0.2-0.7-0.5-1-0.7-0.9-0.1-1.7-0.3-2.7-0.7-3.3 1-6-0.1-7.4-0.8-0.9-0.5-1.7-1-2.2-1.3-0.1-0.1-0.3-0.2-0.4-0.3-1.7-0.9-3.9-2.7-4.8-5.7-1.8 0-3.4-0.6-4.4-1.1-3 0.6-5.5-0.5-6.8-1.2-4.4-2.6-5.2-6.6-5-10.1-1.1-1.3-1.7-2.8-2-4.3-1.3-0.2-2.7-0.7-4.1-1.6-1.4-0.9-2.5-2-3.2-3.1-0.4-0.2-0.9-0.5-1.3-0.8-1.1-0.7-1.8-1.4-2.4-1.9l-0.2-0.2c-1.5-1.1-2.5-2.3-3.2-3.6-2.1 0.2-4.6-0.1-7.1-1.9-2.3-1.6-3.5-3.8-4.1-5.6-1.6-0.2-3.3-0.8-5-2-0.9-0.6-1.5-1.3-2.1-2-4.9 1.9-8.5-0.2-10-1.2-0.1 0-0.2-0.1-0.2-0.1-0.6-0.4-1.6-0.9-2.5-1.7-2.4-2-3.5-4.2-3.7-6.4-2.3-0.5-3.9-1.7-4.6-2.3l-0.3-0.3c-4.9 1.3-8.3-1.3-9.4-2.3-3.7-3.4-3.8-7.3-2.9-10.7-1.7 0.3-3.8 0.3-5.9-0.5-1.7-0.2-4.4-0.9-6.7-3.2-3.5-3.5-3.3-7.9-2.8-10.3-0.6-0.7-1.1-1.3-1.5-2-5.2 1.5-8.6-1-10.3-2.9-0.8-0.9-1.4-1.8-1.8-2.7-0.7-0.5-1.5-1.1-2.1-1.9-1.1-1.3-4.1-5.5-1.4-11.4-0.2-0.2-0.4-0.3-0.6-0.5-2.5-0.2-5.2-1.1-7.4-3.8-1.8-2.3-2.4-4.6-2.3-6.7-2.6-0.1-5.8-1-8.2-4.3-0.3-0.4-0.6-0.9-0.8-1.3-1.2-0.7-2.4-1.7-3.4-3.1-1.6-2.3-2.1-4.5-1.9-6.5-2.3-3.5-1.8-6.9-0.6-9.6-5.6 0.4-8.5-3-9.6-4.8-0.8-1.2-1.2-2.5-1.4-3.6-0.5-0.5-0.9-1.1-1.3-1.8-0.6-1.1-1-2.1-1.3-2.8 0-0.1-0.1-0.2-0.1-0.2-0.8-1.4-1.7-3.8-1-6.8-4.4-0.5-6.6-3.3-7.7-5.3-0.4-0.7-0.7-1.4-0.9-2-0.1-0.3-0.2-0.5-0.4-0.8-2.1-4.1-1.1-7.7 0.6-10.4-0.6-0.7-1.2-1.5-1.7-2.5-0.3-0.6-0.5-1.2-0.7-1.7-2.1-0.9-4.2-2.4-5.5-5.4-0.1-0.3-0.3-0.6-0.4-0.9-1.2-0.9-2.3-2.3-3.1-4.1-1.3-3-1-5.6-0.1-7.8-3.7-1.2-5.4-4-6.2-6-0.8-2.1-0.9-4-0.5-5.6-0.1-0.2-0.1-0.4-0.2-0.6-0.2-0.4-0.3-0.9-0.4-1.2-0.9-1-1.8-2.3-2.4-4.2-1.2-3.5-0.2-6.5 0.8-8.5-2-1.1-3.8-3-4.7-6.1-0.1-0.2-0.1-0.5-0.2-0.8-1.5-1.5-2.3-3.3-2.6-4.7-0.8-3.1-0.2-5.6 1-7.6-1-1.1-1.8-2.6-2.2-4.6-0.2-1-0.4-2.7 0-4.6-2.2-1.3-4.1-3.4-4.7-6.9-0.3-1.9-0.5-5.8 2.9-9.1 0-0.2-0.1-0.4-0.1-0.6-0.3-1.8-0.1-3.4 0.3-4.8-0.7-1.1-1.2-2.5-1.4-4.2-0.1-0.7-0.1-1.7 0-2.9-1.3-1.4-2.3-3.2-2.6-5.6-1.9-2-2.5-4.4-2.7-6.1-0.2-2.1 0.1-6.5 5-9.5-2.3-1.5-4.9-4.1-5.1-8.3v-0.2c-0.1-0.7-0.4-1.9-0.4-3.2 0-1.3 0.2-4.5 2.8-7.2-0.1-0.6-0.2-1.2-0.1-1.9v-1.1-1.9c0-2 0.7-6.1 5.2-8.6-0.2-1-0.4-2-0.3-3.2 0.1-1.7 0.5-3.2 1.2-4.4-1.7-1.8-2.8-4.3-2.5-7.7 0-0.2 0-0.3 0.1-0.6-3.7-3.1-3.7-7-3.5-8.9 0.5-4.4 3.1-6.7 5.8-8-1-1.7-1.5-3.9-1.1-6.6 0.5-3.3 2.2-5.3 4.2-6.7 0.1-0.2 0.1-0.4 0.2-0.6-0.3-1.2-0.3-2.6 0-4.1 0.2-0.8 0.4-1.5 0.7-2.2-5.4-4-4.7-9.3-4.3-10.9 0.5-2.3 2.1-5.6 6.2-7.1-0.6-1.2-0.8-2.3-0.9-3.3-0.5-1.5-1.1-4.1-0.2-7.1 0.3-1 1.2-3.2 3.3-5 0-0.5 0-1 0.1-1.5-0.1-1.1-0.1-2.9 0.6-5s1.9-3.5 2.9-4.6c-0.8-2-1.1-4.5 0-7.3 1.1-2.9 4-7.3 11.9-6.4 1.6-1.6 3.6-2.3 5.5-2.6 0-0.1 0.1-0.2 0.1-0.3 0.2-0.6 0.5-1.5 0.9-2.5 0.1-0.3 0.2-0.5 0.4-0.7-0.6-0.4-1.2-0.8-1.7-1.2-7.5-5.6-5.7-11.6-4.6-13.9 0.5-1.1 2.1-3.7 5.3-5 0.2-0.7 0.5-1.4 0.8-2.1 1.7-3.2 4.2-4.7 6.7-5.3-0.3-1.7-0.4-3.9 0.5-6.2-0.8-2.4-0.8-5.1 1-8.1 1-1.7 2.2-2.8 3.5-3.6 0.2-0.3 0.3-0.7 0.5-1 0.2-0.3 0.4-0.6 0.6-0.8 0.1-1.6 0.6-3.2 1.6-4.9 1.1-1.8 4.1-5.2 9.9-4.6 0.5-0.8 1.1-1.4 1.5-1.8l0.3-0.3c0.2-0.2 0.4-0.5 0.7-0.8 0.3-2.2 1.3-3.9 1.8-4.6 0.1-0.1 0.1-0.2 0.2-0.2 0.1-1.8 0.6-3.7 2-5.6 1-1.4 2.1-2.3 3.3-3 0.4-1.9 1.2-3.3 1.7-4 0-0.1 0.1-0.1 0.1-0.2 0.3-0.6 0.9-1.6 1.7-2.6 0.4-0.5 1.3-1.5 2.6-2.3v-0.3c-0.2-2-0.3-5.6 2.4-8.8 1.1-1.3 2.3-2.2 3-2.7 1.1-1.1 2.9-2.4 5.4-2.8 0.3-1.6 1.1-3.4 2.6-5 3.6-4 7.8-3.8 11.2-2.7-0.8-4.7 1.8-7.7 2.8-8.8 2.8-2.8 5.9-3.3 8.7-2.9 0.1-1.3 0.5-2.7 1.3-4-0.6-1.4-0.9-3.1-0.6-5.1-4.1 0.3-6.8-1.9-7.8-2.8-0.8-0.8-1.5-1.6-1.9-2.5h-0.1c-1.6-0.4-4.2-1.3-6.3-3.8-4.3-5.1-1.9-10.7-0.5-13.3-5-0.2-7.4-3.6-8.4-5.3-2.2-4.1-1.3-7.7 0.5-10.4-3.9-0.2-8.8-1.6-10.5-7.5-1.3-4.4 0.3-7.6 2.3-9.9 0-3.3 1.6-5.7 3.3-7.5-3.8-1.3-8-3.9-8-10-0.1-5.1 3.3-8 5.2-9.4 0.2-0.3 0.4-0.5 0.7-0.8-3-2.1-4-4.7-4.3-6.9-0.6-1.5-1.4-4.1-0.6-7.2 1.4-5.8 5.9-7.5 9.9-7.9-3.9-4.9-2.2-9.6-1.5-11.1 0.3-0.6 0.6-1.2 1-1.7 0.1-1.5 0.4-3.2 1.4-4.9 1.2-2.1 4.5-6.3 11.8-4.8-0.8-1.8-1.2-3.9-0.9-6-0.2-2.2-0.2-6 2.9-9.2 2.3-2.4 5-3.2 7.2-3.4 0.7-3 2.7-4.9 3.5-5.6 0.7-0.6 1.5-1 2.2-1.4 0.7-1.2 1.7-2.3 3-3.2 1.9-1.3 3.8-1.8 4.9-2 1-0.4 2.4-0.8 4-0.8 0.3-0.2 0.7-0.5 1.1-0.7 0.6-0.3 1.2-0.6 1.8-0.8 0.9-1.2 2.2-2.3 4-3.1 1.5-0.7 4.6-1.7 8.1-0.1 1.1-1.5 2.8-2.7 5.2-3.4 1.1-0.3 2.2-0.5 3.2-0.4 2.1-2.9 5.1-3.7 6.3-3.9 2.4-0.4 4.4 0 6 0.6 0.3-0.1 0.6-0.1 1-0.2h0.3c1.9-1.7 4-2.3 5.4-2.6h0.1c0.9-0.3 2.5-0.8 4.4-0.8 1.2 0 2.2 0.1 3.2 0.4 1.1-0.4 2.4-0.5 3.9-0.5 4.5 0.3 7.1 3 8.6 5.4 2.1-1.6 4.9-2.7 8.6-1.8 2.3 0.5 7.3 2.6 7.8 9.9 4.9-3.9 9.6-2.1 11.1-1.4 1.4 0.7 5.1 2.9 5.7 8 4.1-1.1 7.2 0.7 8.4 1.5 0.5 0.4 1 0.8 1.4 1.2 4.2-1.2 7.3 0.6 9.1 2.1 0.1 0.1 0.3 0.2 0.4 0.3 0.6 0.5 1.5 1.1 2.4 1.9 5.1 4.8 3.1 10.6 1 14.4 0.5 0.4 1 1 1.5 1.6 0.8 1 1.3 2 1.7 3 3.4-0.2 7.5 0.5 10.1 4.9 0 0.1 0.1 0.1 0.1 0.2 1.5 0.6 2.6 1.5 3.4 2.4 1.2 0.8 3.2 2.4 4.4 5 1.3 2.8 1.1 5.4 0.8 6.9 0.2 1.9-0.3 3.6-0.9 5.1 1.3 1.2 2.5 2.9 3.2 5.2 0.4 1.5 0.7 4.2-0.7 7v0.1c0.1 0.5 0.1 1 0.2 1.4 0.7 0.1 1.2 0.3 1.8 0.5 1.4-3.4 4.1-4.9 6.1-5.6 0.9-0.3 1.7-0.5 2.5-0.6 1.1-1.7 2.8-3.2 5.4-4 5.7-1.8 9.5 1.3 11.9 4.5 0.8-0.7 1.9-1.4 3.1-1.9 1.8-2.9 4.5-4 6-4.4 2-0.5 3.7-0.4 4.7-0.3 1.6-0.2 2.9 0 4.2 0.5 1.2-1.5 3-2.7 5.5-3.3 2.9-0.7 5.3-0.2 7.1 0.9 0.3 0 0.6-0.1 1-0.1 1-0.7 2.3-1.2 3.8-1.6 1.8-0.4 3.3-0.3 4.7 0.1 1.2-7.5 6.8-9.1 8.5-9.4 2.7-0.5 5 0.2 6.4 0.7 2.5 0.4 4.5 1.6 5.9 2.9 1.9-5.4 6.2-6.6 8.3-6.9 3.8-0.5 6.6 1.1 8.2 2.2 0.8 0.3 1.5 0.7 2.2 1.2h0.8c1.1-0.6 2.4-1.1 4-1.2 0.5-0.1 1.5-0.1 2.6 0.1 2.3-2.1 5-2.6 6.1-2.7 4.2-0.3 6.9 1.4 8.8 3.8h0.4c2.4-0.2 4.3 0.4 5.8 1.3 1.3-1 2.9-1.8 4.9-2 1.6-1.6 3.7-2.8 6.8-2.8 3.4-0.1 5.8 1.3 7.5 3 1.1 0.1 2 0.4 2.7 0.6 0.7 0.1 1.3 0.2 1.8 0.4 1.5-1 3.3-1.6 5.6-1.6 2 0 3.7 0.5 5.1 1.3 2.5-5.6 7-6.4 9.7-6.3 2.5 0.1 6.4 1 8.7 5.6 0.9-0.2 1.8-0.3 2.9-0.2 1.5 0.1 2.8 0.4 3.5 0.6 0.3 0 0.6 0.1 0.8 0.1 1.2-0.4 2.5-0.7 4-0.6 1.7-1.1 3.5-1.5 4.9-1.6 2.8-2.5 6-2.6 7.7-2.4 3.2 0.3 8.8 2.3 9.4 11.6 0 0.5 0.1 1 0.1 1.5 0.2 0 0.5 0 0.8 0.1 0.5 0.1 0.9 0.1 1.3 0.2 3.2-7.5 9-7.5 11.4-7.1 1.3 0.2 4.5 1 6.8 4.2 0.5 0.1 1 0.1 1.4 0.2 0.2 0 0.4 0.1 0.6 0.1 1.5-0.6 3.3-0.8 5.4-0.5 0.3 0.1 0.7 0.1 1.1 0.3 2-0.6 3.7-0.4 4.8-0.2 1.2 0.2 2.3 0.6 3.2 1.1 2.1-1.8 5.1-3.3 9.1-2.4 1.2 0.3 2.7 0.8 4.1 1.9 1.9-0.4 3.5-0.2 4.6 0.1 1 0.2 2.6 0.8 4.1 2 1.7-0.3 3.4-0.1 4.6 0.2 2 0.5 3.4 1.4 4.6 2.5 0.3 0.1 0.6 0.1 0.9 0.2 4.1 1.1 6.1 4.1 7.1 6.6 3.9-3.9 8.3-3.2 10.2-2.6 3 0.9 4.8 2.9 5.9 4.3 0.5 0.4 0.9 0.8 1.2 1.2 1.9-0.7 4.1-0.9 6.7 0 0.2 0.1 0.3 0.1 0.5 0.2 1.5-3.5 4.6-5.2 6.4-6 0 0 0.1 0 0.1-0.1v-0.1c0.3-1 0.7-1.8 1.1-2.5-5.8-5-4.3-10.3-3.4-12.5 0.8-1.7 2.2-3.9 5-5.1v-0.1c0.6-1.1 2.3-3.7 5.7-4.9v-1.5c-0.3-2.1-0.4-5.6 2.1-8.9 0.7-0.9 2.4-2.8 5.3-3.6 0.1-0.2 0.3-0.3 0.4-0.5 0.9-1.1 2.8-2.7 5.5-3.2 0.4-1.6 1.2-4.4 3.8-6.6 0.7-0.6 1.5-1.1 2.2-1.5 0.4-3.6 2.6-5.8 4.3-7 0.9-0.6 1.8-1.1 2.5-1.5l0.6-0.3c1.3-0.9 5.8-3.1 11.1 0.2 0.6-1.4 1.3-2.4 2.2-3.2 0.9-1.5 2.7-3.8 5.8-5 3.8-1.4 7-0.4 9.3 1.1 0.5-0.2 1-0.4 1.5-0.5 0.6-0.2 1.7-0.4 3-0.3 0.2-0.2 0.3-0.4 0.5-0.6 1-2.2 3.5-6.4 9-7 1-0.1 2.3-0.1 3.6 0.2 1.2-0.5 2.4-0.7 3.4-0.7 1.3-0.1 4.5 0.1 7.3 2.6 2.5-1.9 5.3-1.9 6.8-1.8 1.9 0.2 5.6 1.1 7.8 5 0.6 0 1.3 0.1 1.9 0.2 0.7 0.1 1.3 0.3 1.9 0.5 3.6-2.7 7.3-2 9-1.5 1.3 0.4 4.4 1.7 6.1 5.4 1.4 0.7 3.7 2.2 5 5.2 1.9-0.3 3.9 0.1 6.2 1.3 2.4 1.3 3.7 3.1 4.5 5 0.1 0 0.1 0.1 0.2 0.1 1 0.6 1.7 1.3 2.3 1.9 3.3-0.2 5.8 1.3 7 2.3 1.8 1.5 2.8 3.2 3.3 4.3 1.1 1.4 1.7 3 2 4.4 0.9 0.5 1.8 1.2 2.7 2.2 0.6 0.7 1.8 2.2 2.4 4.4 0.4 0.4 0.7 0.8 1.1 1.2 0.4 0.4 0.7 0.9 0.9 1.3 1.3 0.7 2.6 1.8 3.7 3.3 0.5 0.8 0.9 1.6 1.2 2.3 0.1 0 0.2 0 0.2 0.1 2.5 0 8.4 0.3 11.2 5.9 3.5 7-1.9 12.1-4.4 14.5 0.1 0.5 0.2 1.1 0.2 1.6 1.7 1.2 3.1 3 3.8 5.6 0.6 2.4 0.4 4.5-0.3 6.3 0 0.1 0.1 0.3 0.1 0.4 0.4 1.9 0.2 3.6 0 4.5 0.4 0.6 0.7 1.2 1 1.8 1.8 0.9 3.6 2.1 4.9 4.1 1.3 1.2 3.2 3.2 3.9 6.3 0.6 1.3 1.5 3.4 1.3 6.2v0.6c0 0.8 0.1 1.8-0.1 3-0.1 1.3-0.8 4.8-4.2 7.3-0.4 2-1.3 3.4-2.4 4.6 2.3 3.3 1.9 6.6 1.2 8.7-1.4 4.5-4.6 6.3-7.9 6.9-0.2 0.3-0.4 0.5-0.6 0.8 0 0.3-0.1 0.7-0.2 1 1.8 2.8 2.8 6.6 0.4 10.8-0.4 0.8-1.2 1.9-2.4 2.9-0.4 1.3-0.9 2.4-1.4 3.1-1.2 1.8-2.5 2.9-4 3.6-0.2 1.6-0.9 3.3-2.3 4.9-1.8 2.2-4.1 3.2-5.5 3.7-2 1.3-5.2 2.3-9.3 0.7-0.8 1.3-1.7 2.1-2.3 2.6-0.6 0.5-1.3 1-1.9 1.3 0.6 0.5 1.2 1.2 1.7 2.1 1.9 0.2 3.9 1 5.8 2.8 3.1 3 3.4 6.6 3.3 8.7 0.2 0.9 0.3 1.9 0.2 3 2.3 0 4.8 0.8 7 3.2 0.9 0.9 2.8 3.4 2.8 7 2.7-0.2 5.6 0.6 8 3.5 0.7 0.8 1.4 1.9 1.9 3.2 0.7 0.6 1.3 1.1 1.7 1.6 0.6 0.7 1.1 1.4 1.4 1.9 0.1 0.2 0.2 0.4 0.4 0.5 1.9 2.2 2.5 4.5 2.4 6.7 1.5 0.6 3 1.6 4.3 3.3 1.2 1.6 1.8 3.2 2.1 4.8 0.7 0.4 1.2 0.8 1.7 1.3 0.9 0.6 2.4 1.6 3.7 3.3 0.8 1.1 1.3 2.1 1.6 3.1 1.5 0.7 3.1 1.8 4.4 3.6 2.3 3.4 2.1 6.7 1.4 9.2 6-1 9.1 2.2 10.6 4.5 1.5 2.4 1.7 4.7 1.7 6.3 0.1 0.2 0.1 0.4 0.2 0.5 0.4 0.8 0.7 1.6 0.9 2.4 1.6 0.8 3.1 2.1 4.3 4.2 0.9 1.5 2.2 4.8 0.7 8.6 3.6 1.1 5.3 3.9 5.9 5 0.4 0.7 0.7 1.6 0.9 2.5 0.9 0.9 1.5 1.9 1.9 2.8 0.2 0.4 0.5 1 0.7 1.9 0.9 0.8 1.7 1.9 2.4 3.3 1.3 2.7 1.3 5.1 0.6 7.1 0.3 0.8 0.6 1.6 0.7 2.1 0 0.1 0.1 0.2 0.1 0.3 0.6 1.5 1.4 4.3 0.1 7.5 0.3 0.3 0.7 0.6 1 1 3.2 0.4 7.3 1.8 9.1 6.7 0.7 1.7 2.2 7.7-4.4 12.6 0.1 0.5 0.2 0.9 0.2 1.4 0.4 0.6 0.8 1.3 1.2 2.1 1.8 1.1 3.5 2.9 4.4 5.7 0.5 1.6 0.6 2.9 0.6 4 0.5 0.6 1.1 1.2 1.5 2 4.7 1.3 6.4 4.8 7.1 7.2 0.2 1 0.4 1.9 0.4 2.7 0.5 0.9 1 1.9 1.3 3.1 0.5 2.2 0.3 4.2-0.2 5.7 0.8 1.3 1.2 2.5 1.3 3.3 0.5 2.3 0.2 4.4-0.5 6 0.5 0.9 0.8 1.9 1.1 3.1 0.5 2.7-0.1 5-0.7 6.4 0 0.4-0.1 0.7-0.2 1 0.1 0.4 0.2 0.7 0.3 1.1 2.4 2.1 3.1 4.8 3.3 6.3 0.1 0.8 0.2 1.6 0.2 2.2 1.7 1.4 3 3.5 3.3 6.5 0.3 2.3-0.2 4.2-1 5.7 0.4 1 0.8 2.1 0.9 3.4 0.2 3-0.8 5.4-1.6 6.8-0.3 0.9-0.6 1.7-1.1 2.4 0.1 2.4-0.5 4.3-1.4 5.9 1.2 1.5 2.1 3.5 2.1 6.1 0 1.3-0.2 2.5-0.5 3.5 2.5 1.7 4.6 4.3 4.5 8.6 0 1.7-0.7 7-7 9.6 0.2 1 0.2 1.8 0.1 2.3 0 0.8-0.2 1.6-0.4 2.3 0.3 1.1 0.5 2.3 0.3 3.7v0.2c4.3 3.2 4.3 7.7 4.1 9.2-0.3 2.6-1.3 4.6-2.7 6 0.8 1.6 1.3 3.6 1 6-0.8 5.9-5.1 8-8.9 8.8 0.2 1.1 0.5 2.9 0.1 5-0.2 1.2-0.6 2.3-1.1 3.1 3.5 3.5 3.2 7.5 2.8 9.4-0.5 2.2-2.3 6.8-8.7 7.9V646.4c2.3 1.6 8 5.8 6 13-0.3 1-0.9 2.5-2.1 3.9 0.1 0.9 0.2 1.7 0.1 2.4 0.2 1.3 0.3 3.3-0.4 5.6-0.8 2.4-2.1 4-3.7 5.1v0.1c-1.1 3.1-3.2 4.9-4.7 5.8-0.8 0.9-1.5 1.5-2.1 2-1.4 1.7-3.8 3.3-7.5 3.6 0 0.2-0.1 0.3-0.1 0.5l0.1 0.1c7.1 5.2 5.5 11.1 4.5 13.4-0.4 1-1.7 3.3-4.3 4.8-0.6 1.3-1.4 2.3-2.2 3.1 2.2 4.2 0.7 7.9 0.1 9.2-1.2 2.4-3 3.8-4.3 4.6-0.6 0.6-1.2 1.2-1.9 1.6 0.5 2.1 0.3 4.5-1.1 7.1-0.5 1-2 3.2-4.9 4.4-0.1 0.1-0.1 0.2-0.2 0.4 0 1.7-0.4 3.5-1.5 5.4-1.3 2.2-2.9 3.5-4.7 4.2-2.5 3.9-6.3 4.8-9.1 4.9-0.3 0.4-0.5 0.8-0.8 1.1-0.3 2-1.2 3.6-1.7 4.3-0.5 0.7-1 1.3-1.5 1.8 1.1 2.6 2.3 7-0.8 11.2-1.6 2.1-4.9 5.1-10.6 3.8-0.3 0.4-0.7 0.8-1 1.1 3.9 6.2 1.2 10.8-0.3 12.6-1 1.2-4.4 4.6-10.1 3.5-1.9 2.1-4.1 3-5.6 3.5-2.4 1.4-4.9 1.5-6.5 1.4h-0.1c-0.4 0.5-0.9 0.9-1.4 1.4l-0.2 0.2c-0.2 0.4-0.6 0.9-1 1.5 1.6 3 3.3 7.4 0.9 11.6-0.4 1.4-1.2 3.5-3 5.3-1.1 1.1-3.5 3-7 3-0.7 2.1-1.9 3.5-2.7 4.3-3.3 3.1-7 3.1-10 2.3-1 0.5-1.9 0.8-2.9 0.9 0.3 2.7 0 6.7-3.6 9.7-0.1 0.1-0.2 0.1-0.2 0.2-0.5 1.7-1.5 3.4-3.3 4.9-1.4 1.1-3.6 2.4-6.5 2.3-0.1 0.4-0.3 0.7-0.5 1.1-0.4 1.7-1.4 4.6-4.2 6.7-2.5 1.9-4.9 2.4-7.2 2.1-0.1 0.1-0.2 0.1-0.3 0.2-0.4 3.9-2.8 6.2-4.2 7.1-1.4 1-2.7 1.5-3.6 1.8-1.7 1-3.4 1.4-5 1.4l-0.1 0.1c-1.1 0.7-4 2.3-7.7 1.5-0.2 0.2-0.4 0.4-0.6 0.5-0.5 2.1-1.8 4.2-4.4 5.8-2.4 1.5-4.8 1.8-6.9 1.5-1.6 0.8-5 2-8.9 0.2-1.2 2.9-3.4 4.4-4.4 5-0.7 0.4-1.3 0.7-2 0.9 0 3.2-0.8 7.7-5.5 10.2-1.2 0.6-4.7 2.1-8.7 0.4-2.6 0.8-5 0.4-6.9-0.4-0.8 0.8-1.8 1.6-3 2.2-0.1 0.1-0.2 0.1-0.3 0.2-0.5 0.4-1.4 0.9-2.4 1.4-1.2 0.5-2.3 0.8-3.3 1-1.4 2.1-3.4 3.2-4.3 3.6-0.7 5.6-4.7 7.8-6.1 8.4-1.2 0.5-2.4 0.8-3.4 0.8-1 1.4-2.4 2.6-4.5 3.5-2.4 1-4.6 0.9-6.5 0.4-1 0.7-1.9 1.1-2.4 1.3-1.7 0.6-3.2 0.8-4.6 0.7-1 2.1-2.8 4.3-5.9 5.4-1.9 0.7-3.6 0.7-5.1 0.5-0.9 0.8-2.1 1.5-3.6 2-2.7 0.9-7.6 1.4-11.8-4.2-0.5 0.3-1.1 0.5-1.8 0.7-0.2 0.1-0.4 0.1-0.6 0.2-0.9 2.6-2.8 5.1-6.6 6.2-0.1 0-0.2 0.1-0.3 0.1-0.6 0.3-1.5 0.6-2.6 1-1.6 0.4-3 0.5-3.9 0.5-1.9 0.4-3.6 0.2-5.1-0.3h-0.1c-0.9 3.2-2.9 6.3-7.5 7.4-4.8 1.1-8.1-1-10.3-3.6-0.7 0.4-1.6 0.7-2.5 0.8-1.3 0.3-2.5 0.3-3.5 0.2-1.9 4.3-5.5 5.5-7.4 5.8-1.6 0.3-3 0.2-4.1 0-0.5 0.2-1.2 0.3-1.9 0.4-1.3 0.2-3.5 0.3-5.9-0.7-1.3 1.4-3.2 2.6-5.9 3-2.7 0.4-4.8-0.2-6.5-1.2-1.6 0.1-4.8 0.1-7.7-2.5-1.8 7.4-7.4 8.5-9.2 8.7-0.6 0.1-1.6 0.1-2.8-0.1-1.3 0.6-2.5 0.7-3.2 0.8-1.8 0.1-7.4 0.1-10.5-6.6-1.6 2.1-3.9 3.8-7.6 3.9-2.4 0.1-4.3-0.5-5.8-1.4-1.9 1.5-4 2-5.5 2.1-2.3 2-5 2.4-6.5 2.4-0.2 0.4-0.2 0.4-0.3 0.4z m-35.2-5.9z m-0.1 0z m-26.6-0.5z m-0.1 0z m-20.7-2.1z m103.4-1.7h-0.1 0.1z m99.7-8.8z m-234-1.1z m239.8-0.3z m-151.8-6.5h0z m11.2-2.8h0.2c0.8 0 2.4 0.2 4.1 1 1.8-0.8 3.5-1 4.3-1h1c2.5-2.9 5.7-3.3 7.3-3.4 0.5 0 1.2 0 1.9 0.1 1.4-0.6 2.7-0.7 3.6-0.8 3.2-0.1 5.5 1.1 7.2 2.7 1.5-1.5 3.7-2.8 6.8-3h0.2c1.3-0.8 3.1-1.6 5.3-1.8 5.4-0.4 8.4 2.9 10.1 5.9h0.4c0.1 0 0.1-0.1 0.2-0.1 1.1-0.9 2.9-2.2 5.6-2.6 0.7-0.7 1.5-1.3 2.5-1.8 1.2-1 3.2-2.4 6.1-2.8 1.8-0.2 5.6-0.2 8.7 3.2 1.2-2.7 3.4-5.4 7.7-6 1.4-0.2 4.1-0.3 6.7 1.2 0.2-0.2 0.4-0.3 0.6-0.4 1.1-1.2 3.2-3 6.3-3.6 2.4-0.5 4.3-0.1 6 0.6 1.2-1.2 2.8-2.1 4.9-2.6 2.8-0.6 5.1-0.1 6.9 0.9 1.1-0.9 2.5-1.7 4.2-2.1 3.2-0.8 5.8-0.1 7.8 1.2 1.5-0.2 2.8 0 4 0.4 1.1-1.5 2.8-2.7 5.1-3.3 2.3-0.7 4.4-0.5 5.7-0.2 0.8-2.8 2.6-5.6 6.7-6.9 2.9-0.9 8.4-1.4 12.6 5.6h0.3c1.1-1.7 2.7-3.3 5.3-4.3 0.2-0.1 0.4-0.1 0.6-0.2 0.8-2.6 2.5-4.9 6-6.3 3.6-1.4 6.6-0.7 8.9 0.8 0.3-0.3 0.6-0.5 0.9-0.7 1.2-4.1 4.4-5.8 5.7-6.4 0.3-0.1 0.5-0.2 0.8-0.3 0.7-2.4 2.3-4.7 5.5-6.1 3-1.3 5.6-1.1 7.8-0.3 0.8-1.9 2.3-3.9 5-5.2 3.3-1.6 6.2-1.2 8.6-0.3 0.2-0.1 0.3-0.2 0.5-0.3 0.8-0.4 2.7-1.3 5.2-1.1 0.4-0.8 0.9-1.6 1.5-2.4-0.2-5.9 3.7-8.7 5.1-9.5 2.3-1.3 4.5-1.5 6.4-1.4 0.5-0.5 1.1-0.9 1.7-1.3 1.1-0.7 4.3-2.2 8.2-1 0.7-0.9 1.6-1.7 2.7-2.4 0.8-0.5 1.6-0.9 2.4-1.2 0.7-1.7 1.8-3.3 3.8-4.6 1.1-0.8 4.3-2.5 8.4-1.3 0-0.2 0.1-0.4 0.2-0.5 0.2-2.2 0.9-5.9 4.5-8.5 1.1-0.8 4-2.5 7.9-1.8 0.4-2 1.3-3.5 2.3-4.6 0.3-2.2 1.2-4.9 3.9-7.1 1.8-1.5 5.1-3.2 9.4-1.7 0.4-1.5 1.3-3 2.7-4.4 0.4-1.8 1.4-3.8 3.3-5.5 1.9-1.7 3.9-2.5 5.8-2.6 0.1-0.3 0.2-0.5 0.3-0.8 0.3-1.7 1-4.4 3.3-6.6 3.2-3 6.9-3.2 9-3 0.6-0.1 1.3-0.1 2-0.1 0.5-1.1 1.1-2.2 2.2-3.3 0.7-0.7 1.4-1.3 1.9-1.7 0.3-0.4 0.6-0.9 1-1.5 0.1-2 0.7-4.5 2.7-6.7 2.7-3 6-3.6 8.7-3.4 0.4-0.8 0.9-1.6 1.5-2.4 0.3-0.4 0.7-0.8 1-1.1-0.3-3.4 1.3-5.8 2.2-7 0.8-1 1.7-1.8 2.6-2.3-0.6-2.5-0.3-5.3 1.9-8.2 0.9-1.2 1.8-2 2.3-2.5 0.9-1.1 2.2-2.2 4-2.9 0.1-1.6 0.6-3.6 2-5.5 0.1-0.2 0.3-0.4 0.4-0.5 0.2-1.5 0.7-3 1.8-4.6 1.7-2.5 3.7-3.7 5.9-4.2 2.2-2.8 5.1-3.6 7.7-3.6 1-1.6 2.1-2.7 3.4-3.4-0.4-2-0.1-4.2 1.2-6.7 0.2-0.3 0.4-0.7 0.8-1.2-0.5-2.1-0.5-4.7 0.9-7.4 1.3-2.3 3.1-3.7 4.8-4.6-0.8-2.2-1.2-5.1 0.4-8.3 1.3-2.7 3.2-4.2 5.2-5 0.1-0.5 0.3-0.9 0.5-1.4 0.1-0.2 0.2-0.4 0.3-0.7-0.1-1.3 0.1-2.5 0.3-3.5 0.1-0.7 0.2-1.6 0.5-2.6-0.9-2.1-1.2-4.7 0-7.6 1.3-3.2 3.6-4.9 5.9-5.8 2.1-3.5 5.4-4.5 8.5-4.7-6.5-4.2-6.1-9.4-5.2-12.2 0.9-2.8 2.6-4.6 4.3-5.7-0.2-1.3-0.2-2.7 0.3-4.3 0.4-1.3 0.9-2.4 1.5-3.3-1.2-2-2.1-4.6-1.3-7.9 0.3-1.1 0.8-2.8 2.2-4.4 0-0.3 0.1-0.5 0.1-0.7 0.5-2.1 1.4-3.7 2.1-4.6 0.4-0.9 0.8-1.6 1.4-2.2-1-1.7-1.5-3.9-1.1-6.6 0.8-5.1 4.6-7.4 7.5-8.4 0.9-1.5 2.1-2.6 3.5-3.4-2.3-1.5-3.5-3.4-4.1-5.1-0.9-1.4-2.2-4-2-7.3 0.1-1.4 0.4-2.6 0.9-3.6-2.7-2.8-2.8-6.2-2.8-7.4 0.2-3.8 2.2-6.3 3.6-7.7 0.2-0.2 0.3-0.5 0.5-0.7-0.8-1.4-1.4-3.1-1.4-5.2 0-3.4 1.5-5.8 3.1-7.4-0.4-1-0.7-2.1-0.8-3.4 0-0.1 0-0.2-0.1-0.3-0.1-0.6-0.3-1.5-0.3-2.6-0.1-1.3 0.1-2.4 0.4-3.4-0.2-0.7-0.3-1.4-0.3-2.2-0.3-4.1 1.5-6.8 3.8-8.5-0.3-0.9-0.6-1.8-0.7-2.9-0.1-0.7-0.1-1.4 0-2-0.4-0.7-0.7-1.6-0.9-2.5-5.9-1.7-7.2-6.3-7.6-8.4-0.3-1.8-0.5-8 6.9-11.4 0.1-0.1 0.3-0.1 0.4-0.2 0.1-0.5 0.3-0.9 0.4-1.3v-0.1c-0.1-0.1-0.1-0.2-0.2-0.3h-0.3c-8.9 0-11.1-5.7-11.7-8.1-0.3-1.3-0.5-3.8 0.6-6.3-3.5-1.5-4.9-4.5-5.5-6.5-0.4-1.6-1.2-6.3 3.2-10.3-1-1-1.9-2.4-2.5-4.2-0.3-0.8-0.4-1.7-0.5-2.4-0.6-0.8-1-1.7-1.4-2.8-0.4-1.1-0.6-2.2-0.6-3.2-0.4-0.6-0.7-1.3-1-2.1-0.6-1.5-0.7-2.9-0.8-3.7-0.2-0.9-0.4-2.1-0.3-3.5-3.3-0.2-7.1-1.3-9.3-5.6-0.5-0.6-1.2-1.6-1.8-3-0.9-2.1-2.2-7 2.7-11.7l-0.3-0.3c-6 0.4-8.8-3.1-10-5.5-0.9-1.8-1.8-4.7-0.5-8-0.3-0.8-0.4-1.6-0.5-2.4-1-0.8-2-1.8-2.7-3.2-0.9-1.6-2.3-5.2-0.2-9.4-0.2-0.7-0.3-1.3-0.3-1.9-6 1-9.2-2.2-10.6-4.5-0.7-1.2-1.2-2.3-1.4-3.4-0.4-0.4-0.8-0.9-1.1-1.5-1.9-2.9-2-5.8-1.4-8.2-1.9-0.5-3.8-1.7-5.4-3.9-0.6-0.8-1.1-1.7-1.4-2.5-2.5-0.9-4-2.6-4.6-3.4-1.8-2.3-2.3-4.6-2.1-6.7-1.2-0.6-2.5-1.5-3.6-2.9-0.6-0.8-1.1-1.6-1.5-2.4-4.3 0.5-7.2-1.7-8.6-3.4-1.3-1.5-2.9-4.2-2.4-7.7-0.7-0.3-1.3-0.8-2-1.3-0.8-0.5-2.1-1.3-3.3-2.6-1.1-1.2-3.1-3.9-2.7-7.8-0.2-0.2-0.3-0.5-0.4-0.7-1.7-0.4-3.5-1.2-5.1-2.8-0.8-0.8-1.5-1.7-1.9-2.5-2.7 0.5-5.6 0-8.4-2.6-2.3-2.1-5.4-6.7-1.1-14-0.6-0.3-1.2-0.6-1.8-1-0.5-0.4-1.6-1.2-2.5-2.5l-10.2-8.8 7.4-3.6c-0.3-3.6 0.4-7.7 5-10.4 2.2-1.3 4.3-1.5 5.9-1.5 0.3-0.3 0.7-0.6 1.1-0.9 0.6-0.4 1.2-0.8 1.8-1.1 0-2.3 0.6-5.2 3.2-7.8l0.9-0.9c0.2-0.2 0.5-0.4 0.7-0.7 1.5-1.6 4.2-3.5 8.2-3.1-0.7-3.1 0.4-5.7 1.4-7.3 1.2-1.9 3.7-4.6 8.1-4.8 0.1-0.6 0.3-1.1 0.6-1.7 0.1-0.3 0.2-0.5 0.4-0.7-4.5-3.8-4.2-8.1-3.5-10.6 0.9-3.2 3-5.5 6.3-7 0.7-1.1 1.5-2 2.5-2.7 0.5-1.7 1.3-3.1 2.4-4.1-1.4-1.3-2.5-3.1-2.9-5.6-1.3-1.4-2.4-3.3-2.7-6-0.1-1.2-0.1-2.2 0.1-3.2-0.6-0.8-1.1-1.8-1.5-3-1.4-1.1-2.5-2.7-3.2-5-0.7-2.4-0.5-4.5-0.2-5.8 0-1.1 0.2-2.1 0.4-3.1-0.3-0.9-0.4-1.8-0.4-2.7-1.8-0.7-3.4-2-4.7-4.2-0.9-1.4-1.3-2.9-1.5-3.9-2.7 0.2-5.6-0.6-8.1-3.5-2.1-2.5-2.7-5-2.5-7.4-3.5 0.5-6.2-1-7.4-2-1.1-0.9-4.1-3.6-4-8.3-0.1-0.1-0.2-0.1-0.3-0.2-1-0.1-2-0.4-3-0.9-1.6 0.2-3.4 0-5.4-0.8-1.2-0.5-3.4-1.8-4.8-4.2-1.6 0.1-2.9-0.1-3.7-0.3-1-0.3-1.9-0.7-2.7-1.1-1.8 1.3-4.1 2.1-7.1 1.7-1-0.1-2.3-0.5-3.6-1.1-0.9 0.2-2 0.4-3.3 0.4-0.6 0-1.1-0.1-1.6-0.2-1.7 1.2-3.5 1.7-5.2 1.9-1.4 0.1-3 0-4.5-0.6-1.1 1-2.6 1.8-4.5 2.2-1.5 0.3-4.4 0.6-7.3-1.1-1.1 3.2-3.5 4.9-5.3 5.7-1.2 0.5-2.3 0.8-3.4 1-0.3 0.2-0.7 0.4-0.9 0.5-1.7 0.9-3.3 1.3-4.7 1.3-0.8 1.4-1.9 2.5-3 3.4-1.4 1.1-2.8 1.6-4.2 1.9-0.4 1.2-1 2.2-1.5 2.9-0.4 0.8-1.1 2-2.2 3.2-1.6 1.6-4.5 3.7-8.8 3 0.1 1.8-0.2 4-1.6 6.3-0.2 0.3-0.4 0.7-0.7 0.9 0.5 2.7-0.3 4.9-0.9 6.1-0.7 1.5-2 3.3-4.3 4.5-0.1 0.3-0.2 0.7-0.3 1-0.1 0.3-0.2 0.5-0.3 0.7 0.8 1.8 1.1 3.9 0.5 6.5-0.2 0.9-0.9 3-2.7 4.7 0.3 1.1 0.5 2.5 0.3 4v0.2c0.7 1.7 0.9 3.4 0.8 4.4-0.3 7.9-7.7 9.9-10.5 10.6h-0.1c-0.2 0.2-0.5 0.3-0.7 0.4-0.2 0.1-0.3 0.2-0.5 0.3l0.1 3.2-2.2-0.9c-0.7 2.6-1.9 4.6-4.4 6.3l-4.3 2.8-4.8-1.8c-1.3-0.5-4.6-2.2-5.9-6.3-0.1-0.1-0.3-0.2-0.4-0.3-2.4 0.6-4.6 0.1-5.8-0.3-1.2-0.4-3.1-1.4-4.6-3.3-0.9-0.1-1.8-0.2-2.8-0.6-2.2-0.7-3.8-2-4.9-3.4-1.2 0.3-2.3 0.4-3.2 0.3-1.2 0.2-3.1 0.3-5.3-0.4-0.1 0-0.2-0.1-0.3-0.1-1.6 0.4-3.3 0.5-5.4-0.1-1.1-0.3-3.9-1.4-5.8-4.3-2.8 1.8-5.7 1.6-7.6 1.1-2.1-0.5-3.7-1.6-4.9-2.7-1.6 0.5-3.6 0.8-5.9 0.3-1.3-0.3-2.8-0.9-4.3-2-1.6 0.3-3 0.1-3.7-0.1-1.3-0.3-2.4-0.7-3.3-1.3-2 0.6-3.8 0.5-4.9 0.3-1.3-0.3-4.9-1.3-7-5.1-1.5 0.8-3.4 1.3-5.6 1.1-2.5 1.5-5.1 1.4-6.5 1.2-0.4-0.1-0.7-0.1-1-0.1-0.6-0.1-1.1-0.1-1.7-0.2h-0.7c-0.6 0-1.3-0.1-2.1-0.2-1.5-0.2-2.8-0.7-3.9-1.3-0.5 0-1 0-1.5-0.1-1.4-0.2-2.5-0.5-3.4-0.9-0.6 0-1.3 0-2.1-0.1-1.6-0.2-3.8-0.8-5.7-2.4-2.1 1-4.1 1.1-5.3 1-1.5-0.1-5.6-0.9-8-5.2-0.2-0.1-0.4-0.1-0.5-0.2-1 1-2.3 1.9-3.9 2.5-1.4 0.9-3.8 2.1-6.9 2-0.8 0-1.8-0.2-2.8-0.5-1 0.2-1.9 0.3-2.7 0.2-0.7 0-1.4-0.1-2-0.2-1 0.3-2.2 0.5-3.5 0.5-2.2 0-4-0.7-5.5-1.6-0.8 0.2-1.8 0.3-2.8 0.3-4.7 0-7.5-2.8-9-5.1l-2.1 0.3h-0.3c-1.4 0.9-3.1 1.6-5.3 1.6h-0.2c-1.5 2.1-4 4.2-8 4.4-2.5 0.1-4.5-0.6-5.8-1.2-0.8-0.2-1.5-0.4-2.2-0.8h-0.5c-1.4 0.1-2.6-0.1-3.7-0.4-1.5 1.8-3.7 3.5-7.1 3.8-2.1 0.2-6.6 0-9.7-4.9-0.5-0.1-1-0.3-1.4-0.5-0.2 0-0.4 0.1-0.6 0.1-0.2 0-0.4 0-0.6 0.1-0.8 1.4-1.8 2.4-2.9 3.1-1.2 1.3-3.4 3.3-6.9 3.8-4.8 0.7-7.9-1.8-9.8-4.1-0.5-0.1-0.9-0.2-1.3-0.4l-0.2 0.2c-1 2-3.3 5.5-8 6.3-2 0.4-3.7 0.1-5.1-0.3-0.2 0-0.4 0.1-0.6 0.1-0.9 0.2-1.7 0.2-2.4 0.2-0.9 0.5-1.8 0.9-3 1.1-0.1 0-0.2 0-0.4 0.1-1.2 1.1-2.7 2-4.8 2.5-0.3 0.1-0.6 0.1-1.1 0.2-1.1 1.5-3.1 3.5-6.4 4.3-2 0.5-3.8 0.4-5.3-0.1-1.7 2.1-3.9 3-5.2 3.4-0.7 0.2-2.1 0.5-3.9 0.3-0.3 0.2-0.7 0.3-1.1 0.4h-0.1c-0.6 0.3-1.6 0.8-3 1.2-5.1 1.5-8.8-1.1-10.7-2.8-0.2-0.1-0.5-0.2-0.7-0.3-0.4 6-4.3 8.3-6.8 9.2-2.3 0.8-4.4 0.7-6.1 0.2-2.1 0.7-7.9 1.7-12.4-5-0.1-0.1-0.1-0.2-0.2-0.2-1.3 3.1-3 6.4-6.9 8l-14.2 5.6 0.4-12.5c-1.5-2.2-3.1-4.7-3.2-8.2 0-2.9 1.1-5.1 2.3-6.6-4.7-1.7-6.1-5.5-6.5-7.4-0.3-1.2-0.4-2.9 0-4.7-0.6-0.9-0.9-1.7-1-2.2-1.4-4-0.3-7.1 1.7-9.5-1.3-1.1-2.1-2.2-2.5-3-0.2-0.4-0.4-0.9-0.6-1.3-3.5-0.2-6.3-1.7-8.2-4.3-0.3-0.5-0.6-0.9-0.9-1.4-0.8-0.5-1.5-1.2-2.2-2-1.5-1.7-2.2-3.5-2.4-5.3-2.5 0-4.5-1.1-6-2.4-0.8-0.7-2-1.8-2.8-3.6-0.9-0.3-1.7-0.8-2.2-1.1-1.6-1.1-2.7-2.3-3.4-3.6-2-1.2-3.3-2.7-4-3.8-0.5-0.5-0.9-1-1.3-1.6-1.3 0.2-2.7 0.1-4.2-0.4-1.6 0.5-3.4 0.6-5.5 0-2.2-0.6-5.4-2.2-6.8-6.3-0.5 0-1.1 0-1.7-0.1-3.2-0.4-5.3-2-6.7-3.8h-0.3c-1.5 2.4-3.8 4.4-7.7 4.7-2.1 0.2-3.9-0.2-5.4-0.9-1.1 0.9-2.5 1.7-4.4 2.1-0.9 0.2-1.7 0.3-2.5 0.3-0.3 0.3-0.7 0.7-1.1 1-0.6 2.9-2.2 5.8-6.1 7.5-2.2 0.9-6 1.7-9.9-1.3l-0.9 0.6c-2.3 1.4-4.4 1.7-6.4 1.4-0.1 0.8-0.4 1.6-0.7 2.3-0.3 1.7-1.1 4.3-3.5 6.4-1.5 1.4-3.1 2.2-4.6 2.5-0.3 1.4-1 2.8-2.1 4.2 0.5 2.8 0 5.4-1.5 7.7-0.2 0.3-0.4 0.6-0.6 1-0.2 0.3-0.4 0.6-0.6 1-1.1 1.8-3.2 4.2-7 4.7-0.1 0.6-0.4 1.2-0.6 1.9-1 2.2-2.4 3.7-3.8 4.6-0.1 0.5-0.3 1-0.4 1.6-0.2 0.6-0.4 1.1-0.6 1.5 3.3 3.2 3.2 7 2.9 8.8-0.1 0.6-0.2 1.1-0.4 1.7 0.8 1.6 1.2 3.4 1.1 5.3-0.1 1.3-0.6 4.4-3.4 6.9 0.2 0.7 0.4 1.5 0.5 2.3 0.2 2.2-0.3 4.1-1.1 5.6 0.2 2.1-0.3 3.9-0.7 5.1-0.1 0.9-0.3 1.6-0.6 2.4 3.6 0.1 7.8 1.3 9.9 6.3 0.9 2.1 0.9 4 0.8 5.4 1.3 1 2.1 2.1 2.5 2.9 2.4 4.1 1.4 7.9 0 10.5 0.3 1.7 0.2 3.2 0 4.3v0.3c0.4 0.1 0.8 0.3 1.2 0.5 3.8-1 6.7 0.2 8.4 1.4 0.8 0 1.6 0.2 2.5 0.4 1.5 0.1 3.8 0.5 6 2.1 1 0.7 2.1 1.8 3 3.3 0.8 0.2 1.5 0.6 2.4 1 4.4 2.5 5.2 6.5 5.1 9.8l10.5 5.1-9.5 8.1c0.5 3 0.4 7-3.2 10.2-0.5 0.5-1.6 1.3-3.2 1.9-0.5 0.6-0.9 1.1-1.3 1.4-1.7 1.5-3.5 2.3-5.2 2.6-0.4 1.4-1.3 3.2-3 4.9-0.9 0.9-1.8 1.5-2.4 1.9l-0.1 0.1c-0.8 0.7-1.6 1.3-2.4 1.7-0.6 2.3-1.9 3.8-2.5 4.5l-0.5 0.5c-0.4 1.4-1.2 2.9-2.5 4.2-2.3 2.4-4.7 3.2-7.2 3.2 0 3.2-1.6 5.5-2.5 6.6-2.2 2.6-5 3.4-6.7 3.7-0.3 0.1-0.7 0.3-1 0.4-0.1 1.2-0.4 2.2-0.8 3.1-0.3 1.3-0.8 3.3-2.4 5.3-0.9 1.1-2.6 2.8-5.3 3.5-0.4 0.9-0.9 1.6-1.2 2-1.3 1.7-2.8 2.7-4.3 3.3 2 4.8-0.1 8.6-1 9.8-1.3 1.9-2.8 3-4.3 3.6-0.3 0.8-0.7 1.7-1.3 2.5-2.4 3.6-5.9 4.5-8 4.8-1.5 0.6-3.4 1-5.8 0.6-0.2 0.1-0.3 0.2-0.5 0.3 0.6 2.2 0.4 4.7-1.2 7.4-0.6 1-1.3 1.8-2 2.5 0 1.6-0.3 3.4-1.3 5.3-0.9 1.7-2.2 2.9-3.5 3.8-0.1 0.2-0.2 0.4-0.3 0.5-0.5 0.9-1 1.6-1.6 2.3 0.1 1 0.1 2-0.2 3.2 0.6 1.1 1 2.1 1.2 3.1 1 2 2.3 5.7 0.4 9.9-1.2 2.5-3 4-4.7 5v1.4c0.2 1.4 0.3 3.6-0.7 6.1-1 2.4-2.5 4-4.1 4.9-0.3 0.7-0.8 1.6-1.4 2.3 0.4 2.3-0.2 4.2-0.5 5-0.6 1.8-2.4 5.2-7 6.4-0.1 0.9-0.2 1.8-0.5 2.7-0.3 0.9-0.7 1.7-1 2.4 3.3 3.6 2.7 7.6 2.2 9.4-0.6 2-1.5 3.5-2.7 4.6 0 0.9-0.1 2-0.3 3-0.5 2-1.8 5-5.3 6.6 0.1 0.7 0.1 1.5 0 2.3 1.1 1.8 1.7 4.1 1.1 7-0.5 2.7-1.8 4.6-3.4 5.9 0 0.1-0.1 0.3-0.1 0.4 0.2 0.8 0.3 1.6 0.3 2.6 0.2 1 0.4 2.6 0.2 4.5-0.3 1.8-0.9 3.3-1.7 4.4 0.3 0.4 0.5 0.9 0.7 1.3 1.2 1.5 3 4.4 2.6 8.2-0.1 1-0.5 3.3-2.2 5.4 0.1 0.8 0.2 1.7 0.1 2.7-0.2 2.6-1.2 4.5-2.4 6 1.8 1.7 3.3 4.2 3.2 7.7-0.1 2-0.8 6.2-5.4 8.6 0.2 0.7 0.3 1.5 0.3 2.3 0 0.9-0.1 2.6-1 4.5 1.5 1.5 2.5 3.6 2.7 6.4v0.7c0.7 1.1 1.2 2.5 1.4 4.1 0.2 0.7 0.5 1.9 0.6 3.3v0.7c1.1 1.6 1.4 3.3 1.6 4.7 0.1 0.8 0.1 2.1-0.3 3.5 0.8 1.2 1.4 2.7 1.6 4.6 0.2 1.5 0.2 4.5-1.9 7.2 2.6 2 3.4 4.8 3.6 6.3 0.3 2.1 0.1 3.9-0.5 5.4 1.3 1.2 2.3 2.9 2.7 5.2 0.1 0.2 0.1 0.5 0.2 0.7 0.2 0.6 0.3 1.2 0.5 1.9 0.5 2.4 0.6 6.3-3.1 9.5 3.7 1.5 5.2 4.5 5.7 6.6 0.5 1.7 0.9 5.3-1.7 8.7 0.6 0.8 1 1.8 1.4 2.9 1.1 3.5 0.3 6.3-1.2 8.5 0.7 0.4 1.3 0.9 1.9 1.5h0.1c6.4 0 9 3.9 10 6.5 0.6 1.5 1.9 6.3-2.3 10.8 0.4 1.2 0.5 2.4 0.5 3.4 0.2 0.4 0.4 0.7 0.6 1.1 0.8 1.9 1 3.7 0.8 5.2 0.1 0.1 0.1 0.3 0.2 0.4 0.7 1.5 0.9 2.9 1 4.2 0 0 0.1 0 0.1 0.1 1.5 0.8 3.8 2.3 5.2 5.1 0.3 0.7 0.6 1.4 0.8 2 5.3-0.1 8 3.1 9.1 5.3 0.5 0.9 0.8 1.8 1 2.6 2.3 1.2 3.6 3.1 4.1 3.9 1.2 2.1 2.4 5.7 0.1 9.8 1.9 1 3.1 2.4 3.8 3.4l0.1 0.1c0.2 0.3 0.5 0.6 0.8 1 2 0.6 4.5 1.8 6.2 4.5 3.5 5.3 1 10.2-1 13 0.8 1.7 1 3.4 0.9 4.9 0.9 0.1 1.9 0.3 2.8 0.7 2.1 0.2 5.5 1 8 4.2 0.6 0.8 1.1 1.6 1.4 2.1 0.1 0.1 0.1 0.2 0.2 0.3 0.6 0.8 1 1.5 1.4 2.2 3-0.4 6.1 0.3 8.8 3.6 1.8 2.1 2.4 4.4 2.6 5.9 0.5 1.3 0.7 2.7 0.7 3.9 3.3 0.1 5.6 1.9 6.9 3.3 1.8 2 2.5 4.1 2.8 5.5 0.4 0.8 0.7 1.6 0.9 2.3 1.1 2 1.4 4 1.1 5.8 1.1 1.7 1.6 3.5 1.6 5.1 3.2-1.4 8.1-2.6 12.4 1.4 3.3 3.1 3.5 7.1 3.3 9.4 1.2 0.3 2.5 0.8 3.9 1.8 0.6 0 1.1 0 1.7 0.1 2.1-0.2 5.5-0.1 8.5 2.4 2.2 1.8 3.1 3.9 3.6 5.9 1.8-0.1 4.2 0.1 6.5 1.5 0.9 0.3 2.2 0.9 3.6 2 1.9 1.5 3 3.2 3.6 4.9 0.7 0.3 1.4 0.7 2.2 1.2 1.9 1.4 3 3.1 3.6 4.8 1 0.1 2 0.3 3.1 0.7 1.2 0.2 3.1 0.6 5 1.9 2.1 1.4 3.3 3.2 3.9 5 0.7 0.3 1.4 0.6 2.1 1.1h0.1c1.7 0 3.5 0.4 5.4 1.6 3.6 2.3 4.7 5.8 5 8.1 0.2 0.3 0.3 0.6 0.4 0.9 3.4-1.1 6.2-0.1 8 0.9 0.2 0.1 0.5 0.3 0.8 0.5 2 0.1 3.6 0.8 4.6 1.3 0.4 0.2 0.7 0.4 1.1 0.7 1.3 0.1 2.7 0.5 4.2 1.3 1.7 0.9 4 2.7 4.9 5.9 0.4 0.2 0.8 0.3 1.1 0.5 3.4 1.8 4.9 4.4 5.3 7.1 2.6-1.8 6.1-2.9 10.3-1 3.3 1.5 4.9 4.2 5.6 6 0.4 0.6 0.8 1.2 1.1 1.8 1.2 0 2.6 0.1 4.1 0.6 2.8-0.8 5.3-0.2 6.6 0.4 0.6 0.3 1.5 0.7 2.4 1.3 1.2 0.1 2.2 0.4 2.9 0.7 1.3 0.5 2.3 1.2 3.1 1.9 3.4-1.9 6.7-1.2 8.3-0.6 1.8 0.7 3.2 1.7 4.2 2.8 1 0 2.2 0.2 3.4 0.6 2 0.7 3.4 1.7 4.5 2.9 0.9 0 1.9 0.2 3 0.5 0.1 0 0.2 0 0.3 0.1 0.6 0.1 1.5 0.3 2.6 0.6 2 0.6 4.7 2.1 6.2 5.4 1.8 0.9 3.1 2.2 3.9 3.6 1.7-0.3 3.1-0.2 4.1 0 3.9-4.3 8.6-3.6 10.2-3.2 2.9 0.7 4.7 2.3 5.9 4.1 1.8 0.6 3.1 1.6 4.1 2.7 1.6-0.6 3.5-0.8 5.6-0.3 0.5 0.1 1 0.2 1.4 0.4 1.9-1.2 4.3-1.9 7.3-1.3 1.2 0.2 3.1 0.8 4.9 2.4 1-0.1 2-0.1 3.1 0.1 1.4 0.2 5.3 1.3 7.4 5.7 3-3.7 6.8-4 9.2-3.6 0.7 0.1 1.7 0.3 2.8 0.8 1.1-0.1 2-0.1 2.7 0 2.3 0.3 5.8 1.5 7.8 5.6 3.2-3.9 7.4-3.9 8.8-3.8 1.5 0.1 2.8 0.5 3.8 1.1 1.3-0.5 2.7-0.7 4.5-0.6 1.2 0.1 3.2 0.4 5.1 1.8 1.5-0.9 3.5-1.6 6.1-1.5 4.6 0.2 7.1 2.8 8.6 5.6 0.3-0.1 0.6-0.1 1-0.1 1.5-0.5 2.9-0.8 4.7-0.8z m-2.7 0.6z m48.6-0.6c0.4 0 0.9 0 1.4 0.1-0.7-0.1-1.4-0.1-2.1-0.1h0.7z m125.7-1.2z m-115.5-0.2c-0.1 0-0.3 0-0.4 0.1 0.2 0 0.3-0.1 0.4-0.1z m0.1 0z m-72.8-1.7z m181.4-16.9z m0 0z m49.1-2.6z m-345.1-2.1z m364.2-6.3l-0.1 0.1 0.1-0.1z m-405.3-3.8z m-13.6-4.3c0.1 0 0.1 0 0.2 0.1-0.1 0-0.2 0-0.2-0.1z m392.3-5.6z m72.7-7.7z m-529.1-1.7z m0 0z m-11.7-9s0.1 0 0 0c0.1 0 0 0 0 0z m38-0.3c0.1 0.1 0.1 0.1 0 0 0.1 0.1 0.1 0.1 0 0z m519.4-3.6c-0.3 0.3-0.6 0.5-0.8 0.7 0.3-0.3 0.6-0.5 0.8-0.7z m-577.6-3.7z m8.3-5.8z m29-0.8z m4.1-1.1z m0 0z m506.5-2.5c-0.1 0-0.1 0.1-0.2 0.1 0.1 0 0.1-0.1 0.2-0.1z m-528.3-12c0.4 0.2 0.7 0.5 1 0.7-0.3-0.3-0.6-0.6-1-0.7z m4.6 0.6c0.1 0 0.1 0 0 0 0.1 0 0.1 0 0 0z m538-1.9z m0 0z m-549.1-2s0.1 0.1 0 0c0.1 0.1 0 0 0 0z m-40.7-1.7z m0 0z m27.6-5.8c0.3 0.2 0.5 0.4 0.7 0.6-0.3-0.2-0.5-0.4-0.7-0.6z m-3.7-2.9z m-7.2-5.2c0.1 0.1 0.2 0.2 0.3 0.2-0.1 0-0.2-0.1-0.3-0.2z m-10.7-4.7c0 0.1 0 0.1 0 0 0 0.1 0 0.1 0 0z m648.1-5.3s-0.1 0 0 0c-0.1 0 0 0 0 0z m-26.5-1.1z m-649.1-3.8s0.1 0 0 0c0.1 0 0 0 0 0z m15.3-12.9c0.3 0.4 0.8 1 1.2 1.9-0.3-0.7-0.7-1.3-1.2-1.9z m1.3-4.8z m-0.1-0.1z m-11-8.8z m-9.8-3.1z m4.8-0.1z m-10.6-16.4z m-41.8-25.6z m760.4-6.9c-0.3 0.4-0.6 0.9-0.9 1.4 0.2-0.3 0.5-0.8 0.9-1.4z m2.6-6c-0.3 0.6-0.5 1.1-0.6 1.6 0.2-0.7 0.5-1.3 0.6-1.6z m-750.4-6z m789.9-18.2z m-21-4.8c0 0.1-0.1 0.2-0.1 0.2 0-0.1 0.1-0.1 0.1-0.2zM117 662z m-0.1-0.1c0.1 0.1 0.1 0.1 0 0 0.1 0.1 0.1 0.1 0 0z m810.6-6.1v0z m-26.3-1.6z m-810-24.6z m815.1-2.4z m26.3-3.7z m-0.5-6.1z m-18.6-5.7z m0-16.7v0.9c-0.1-0.4-0.1-0.7 0-0.9z m-801.2-8.5z m-28.1-7.1z m828.2-1.2v0z m-832.6-1.7z m0 0z m857.2-0.2v0z m1.4-18v0z m-23.1-2s0 0.1 0 0c0 0.1 0 0 0 0z m-804.6-8.2z m-18.9-7v0z m22-20.3z m821.4-28.3v0zM93.4 474.9z m832.3-1.6zM99.2 457.7z m0-0.1z m787.6-6.7z m7.6-0.2v0z m-758.7-3.6z m-18.4-7.9z m23.7-1.9s0 0.1-0.1 0.1c0.1 0 0.1-0.1 0.1-0.1z m772.9-4.3z m-752.7-34.6z m0 0z m0-0.1z m732-8.8c0.1 0 0.1 0 0 0 0.1 0 0.1 0 0 0z m-32.2-6.7s0 0.1 0 0c0 0.1 0 0 0 0z m18.6-5.9l0.1 0.1s0-0.1-0.1-0.1z m-34.3-6.9s0.1 0 0 0c0.1 0 0 0 0 0z m-690.8-11.7z m6.4-10.3c-0.2 0.3-0.4 0.5-0.6 0.8 0.2-0.3 0.4-0.6 0.6-0.8z m0 0z m2.6-5.7z m47.5-3.1z m-39.6-1.9l-0.1 0.1 0.1-0.1z m42.9-2.7z m-21.7-10.1z m0 0z m641.9-6.9c0.2 0.2 0.5 0.5 0.7 0.8-0.2-0.3-0.4-0.6-0.7-0.8z m-651.7-14.8z m-1.9-7.4c0.1 0 0.1 0.1 0 0 0.1 0.1 0.1 0 0 0z m633.6-7.9z m-617-8.1z m0-0.1c0 0.1 0 0.1 0 0 0 0.1 0 0.1 0 0z m0.2-3.2z m-1.9-12.3z m640.4-13.5s-0.1 0 0 0c-0.1 0 0 0 0 0z m-649.6-1s0 0.1 0 0c0 0.1 0 0 0 0z m468.2-8.8z m-488.4 0z m0-0.1z m701.5-1.4z m0 0z m-22.6-3.3v0z m-445.7-0.9s-0.1 0 0 0c-0.1 0 0 0 0 0z m0 0z m5.6-0.3z m1.3-0.4c-0.5 0.2-1 0.3-1.3 0.4 0.5-0.1 0.9-0.3 1.3-0.4z m215.2 0.1c0.1 0 0.2 0 0.2 0.1-0.1-0.1-0.1-0.1-0.2-0.1z m-460.8-0.2z m0.1-1.1c-0.1 0.4-0.1 0.7-0.1 1.1 0-0.3 0.1-0.7 0.1-1.1z m165.5 0.8z m289.9 0z m20.8-2.7z m64.4-4z m-271.3-1.8c-0.6 0.2-1 0.3-1.4 0.4 0.5-0.1 0.9-0.2 1.4-0.4z m104-2.9z m0 0z m-61.7-1.1c-0.9 0.3-1.7 0.4-2.1 0.4 0.7-0.1 1.5-0.2 2.1-0.4z m203.1-5.8c-0.2 0.4-0.3 0.9-0.4 1.4 0.1-0.4 0.2-0.9 0.4-1.4z m-33.1-3.7c0.4 0.1 1 0.3 1.7 0.6-0.6-0.2-1.1-0.4-1.7-0.6z m-452.5-1.2z m157.3-2.2c0.1 0.3 0.2 0.6 0.3 0.8-0.1-0.3-0.2-0.5-0.3-0.8z m77.8-2.4z m0.1 0z m-80.2-2.9c0.1 0.4 0.3 0.9 0.4 1.6-0.1-0.5-0.2-1.1-0.4-1.6z m266.9 1.1c0.9 0 1.6 0.1 2.1 0.2-0.9-0.2-1.7-0.2-2.5-0.2h0.4z m214.6-5.1z m-511.3-0.4z m395.1-0.9c0 0.1 0 0.1 0 0 0 0.1 0 0.1 0 0z m-397.8-0.1z m-0.1-0.1z m231.8-1.7z m-94.1-1.6z m0 0zM345 191.9z m-0.2-0.5c0.1 0.2 0.2 0.3 0.2 0.4-0.1-0.1-0.2-0.2-0.2-0.4z m508.3-1.3z m-0.9-1.4c0.4 0.5 0.7 1 0.9 1.4-0.3-0.5-0.6-1-0.9-1.4zM323 174.9z m-140-3s-0.1 0 0 0c-0.1 0 0 0 0 0z m4.6-5z m0.8-0.8c-0.3 0.2-0.6 0.4-0.8 0.7 0.2-0.1 0.5-0.4 0.8-0.7z m514.5-1.1l-0.4 0.4c0.2-0.1 0.3-0.3 0.4-0.4z m128.6-0.5c0.1 0.1 0.1 0.1 0 0 0.1 0.1 0.1 0.1 0 0z m-628.6-11.7c-0.1 0-0.1 0.1-0.2 0.1 0-0.1 0.1-0.1 0.2-0.1z m48.6-16.2z m0.1 0c-0.1 0-0.1 0 0 0-0.1 0-0.1 0 0 0z" p-id="13657"></path><path d="M387 523.8a126 116.2 0 1 0 252 0 126 116.2 0 1 0-252 0Z" fill="#FFFFFF" p-id="13658"></path><path d="M479.1 488.7a33.9 23.4 0 1 0 67.8 0 33.9 23.4 0 1 0-67.8 0Z" p-id="13659"></path><path d="M286 468a34.6 30.5 0 1 0 69.2 0 34.6 30.5 0 1 0-69.2 0Z" p-id="13660"></path><path d="M669.5 470.5a34.6 30.5 0 1 0 69.2 0 34.6 30.5 0 1 0-69.2 0Z" p-id="13661"></path></svg>