<?xml version="1.0" standalone="no"?><!DOCTYPE svg PUBLIC "-//W3C//DTD SVG 1.1//EN" "http://www.w3.org/Graphics/SVG/1.1/DTD/svg11.dtd"><svg t="1672388579478" class="icon" viewBox="0 0 1024 1024" version="1.1" xmlns="http://www.w3.org/2000/svg" p-id="6204" xmlns:xlink="http://www.w3.org/1999/xlink" width="81" height="81"><path d="M69.5 913.4c0 25.8 20.9 46.6 46.6 46.6h791.8c25.7 0 46.6-20.8 46.6-46.6V507.2h-885v406.2z m377.8-357c0-11.5 12.9-20.7 28.8-20.7h71.8c15.8 0 28.8 9.3 28.8 20.7v51.8c0 11.5-12.8 20.7-28.8 20.7h-71.8c-15.8 0-28.8-9.3-28.8-20.7v-51.8zM908 256.3H723.7C718.2 149.1 630 64 521.4 64h-18.7C394.3 64 306 149.1 300.4 256.3H116.1c-25.7 0-46.6 20.8-46.6 46.5v189h885v-189c0.1-25.8-20.8-46.5-46.5-46.5z m-561 0c5.6-81.3 73-145.5 155.7-145.7h18.7c82.7 0.1 150.1 64.3 155.7 145.7H347z" p-id="6205"></path></svg>