<?xml version="1.0" standalone="no"?><!DOCTYPE svg PUBLIC "-//W3C//DTD SVG 1.1//EN" "http://www.w3.org/Graphics/SVG/1.1/DTD/svg11.dtd"><svg t="1672388040564" class="icon" viewBox="0 0 1024 1024" version="1.1" xmlns="http://www.w3.org/2000/svg" p-id="3202" xmlns:xlink="http://www.w3.org/1999/xlink" width="81" height="81"><path d="M76.8 371.2c-12.8 0-25.6 12.8-25.6 19.2V576c0 12.8 6.4 19.2 19.2 19.2s25.6-12.8 25.6-19.2V390.4c0-6.4-12.8-19.2-19.2-19.2zM832 441.6L505.6 608 192 448l-38.4-19.2v409.6c44.8 76.8 185.6 134.4 358.4 134.4 172.8 0 313.6-57.6 358.4-134.4V416l-38.4 25.6z" fill="" p-id="3203"></path><path d="M1017.6 288c0-6.4-6.4-6.4-12.8-12.8L524.8 51.2c-6.4 0-12.8-6.4-19.2 0L19.2 275.2c-12.8 0-19.2 12.8-12.8 25.6 0 6.4 6.4 6.4 12.8 12.8l134.4 64 38.4 19.2 300.8 140.8c6.4 0 12.8 6.4 19.2 0l268.8-121.6 140.8-64 76.8-38.4c19.2-6.4 25.6-19.2 19.2-25.6z" fill="" p-id="3204"></path></svg>